<svg width="244" height="296" xmlns="http://www.w3.org/2000/svg" xmlns:xlink="http://www.w3.org/1999/xlink"><defs><path d="M.18 63.88C4.28 38.8 15.31-9.92 37.85 1.9c14.36 7.52 21.9 39 25.87 69.83 0 0-26.14-.2-34.77-1.34-7.3-.96-28.77-6.51-28.77-6.51" id="a"></path></defs><g fill="none" fill-rule="evenodd"><path d="M244 277.55c-.06.69-.5 1.47-1.43 2.36-4.25 4.05-19.16 5.72-26.55 6.4-10.78.99-22.2 2.16-32.68 1.5-7.94-.52-17.2-2.71-9.38-7.52 2.53-1.56 9.53-2.96 13.17-3.87 8.25-2.05 16.87-3.77 25.64-4.3 6.38-.37 12.37.17 18.37.67 5.42.45 13.1 1.64 12.85 4.76M77.98 265.88c-.1.8-.62 1.66-1.67 2.62-4.8 4.36-20.75 5.07-28.64 5.25-11.53.26-23.75.69-34.84-.96-8.4-1.24-18.09-4.56-9.46-9.5 2.8-1.6 10.33-2.66 14.26-3.4 8.9-1.71 18.18-3 27.53-2.88 6.8.08 13.14 1.2 19.48 2.28 5.73.97 13.8 2.99 13.34 6.59" fill="#E3E3E3"></path><path d="M173.99 281.8a11.7 11.7 0 0 1-1.59 5.06c-4.63 8.34-20.37 9.08-28.16 9.11-11.38.05-23.43.38-34.42-3.28-8.33-2.78-17.98-9.66-9.58-18.98 2.72-3.02 10.13-4.79 14-6.1 8.74-2.98 17.87-5.1 27.12-4.5 6.72.43 13 2.89 19.3 5.25 5.67 2.13 13.7 6.4 13.33 13.44" fill="#E3E3E3"></path><path d="M117.44 276.81c1.7 1.6 2.8 3.5 2.51 5.62-.28 2.04-1.87 3.79-3.82 4.9-1.95 1.12-4.24 1.7-6.52 2.17-10.73 2.24-26.26 4.21-36.84.14-7.05-2.7-11.23-8.7-14.52-14.49-1.95-3.43-5.38-7.93-3.88-11.94 1.98-5.26 9.58-5.66 14.96-4.93 5.57.75 10.92 3.24 14.47 7.15 3.98 4.38 6.16 8.03 12.79 6.28 6.1-1.62 10-.86 16.01 1.96 1.73.8 3.47 1.87 4.84 3.14" fill="#E3E3E3"></path><path d="M74.75 231.47c.34-10.57-1.62-24.02-3.53-34.5-.43-2.38-6.96 1.46-10.04 1.73-4.7.4-9.47.9-14.2.85-9.27-.1-36.12-5.55-36.12-5.55-.99.04-3.42 29.54-3.63 32.07-.71 8.21-1.61 16.39-1.8 24.64-.11 4.43-1.75 14.02 2.22 17.72.42.4.78.78 1.43.88 2.88.45 5.25-4.12 6.2-5.74 6.18-10.43 7.97-22.32 13.63-32.99 1.26-2.39 2.74-4.8 5.15-6.42 2.35-1.55 6.14-3.29 8.94-1.79 6.02 3.23 9.38 10.9 12.17 16.3a89.16 89.16 0 0 1 5.81 14.03c1.43 4.51 2.33 9.13 4.96 13.29 1.08 1.7 2.38 3.76 4.8 4 2.93.3 3.18-6.78 3.4-8.12 1-6.35.67-12.67.84-19.04.1-3.77-.35-7.59-.23-11.36" fill="#CFCFCF"></path><path d="M76.7 231.48c.34-10.57-1.35-24-3.31-34.48-.45-2.38-7.1 1.45-10.25 1.72-4.8.4-9.66.89-14.5.84-9.45-.1-33.67-5.56-33.67-5.56-.6 1.9-2.84 22.48-3.05 24.58A1403.47 1403.47 0 0 0 8.77 255c-.2 2.63-.44 5.26-.57 7.9-.08 1.5-.56 4.13.35 5.5.32.48.8.78 1.46.88 2.94.45 5.04-4.14 6.02-5.76 6.3-10.42 7.72-21.1 16.06-32.93 1.58-2.24 3.1-4.8 5.57-6.41 4-2.6 5.75-3.65 9.97-1.37 5.08 2.75 8.48 7.76 10.77 12.7 2.3 4.97 4.77 10 6.67 15.12 1.89 5.08 3.15 10.4 5.54 15.3.55 1.1 1.37 4.15 2.82 4.06 1.02-.06 1.7-1.3 2.07-2.05.92-1.87.57-4.02.9-6.04 1.03-6.35.38-12.7.56-19.07.1-3.77-.37-7.6-.25-11.36" fill="#E3E3E3"></path><path d="M11.55 202.8c7.13.82 14.35 1.25 21.54 1.69 7.05.43 14 .73 21.06.3 5.35-.32 10.7-.85 15.96-1.67.97-.16 2.12-.95 1.85-1.81-.3-.94-1.8-.98-2.74-.84-7.9 1.25-16.46 2-24.42 1.76-6.95-.21-13.92-.72-20.85-1.24-3.62-.27-7.25-.55-10.85-.97-1.08-.12-2.53.29-2.98 1.15-.45.85.41 1.51 1.43 1.63" fill="#CFCFCF"></path><path d="M73.73 230.9c-.29-6.98-.7-13.97-1.4-20.93-.36-3.56-.78-7.12-1.34-10.66-.3-1.85-.1-4.17-2.51-4.07-2.21.1-4.38 1.25-6.45 1.93-3.2 1.06-6.87 1-10.22 1.22-5.04.31-9.87.03-14.86-.65a414.92 414.92 0 0 1-25.47-4.4c-.54-.12-1.25-.39-1.81-.33-1.3.12-1.43 1.81-1.6 2.8-.78 4.55-1 9.27-1.44 13.86a1465.5 1465.5 0 0 0-2.12 24.67c-.63 8.02-1.63 16.13-1.5 24.18.05 2.79.13 5.85 1.63 8.3 1.23 2 3.2 3.17 5.44 1.92 2.16-1.21 3.44-3.95 4.57-6.01 1.86-3.38 3.25-6.97 4.68-10.53 3.12-7.78 6.42-15.67 11.18-22.64 1.89-2.76 4.7-6.85 8.33-7.47 2.17-.37 4.31 1.18 5.8 2.57 2.1 1.94 3.63 4.42 4.97 6.9 3.2 5.97 6.15 12.17 8.45 18.53 1.22 3.4 2.07 6.9 3.25 10.3.97 2.8 2.31 6 4.54 8.1 1.4 1.3 3.75 2.15 5.47.9 1.49-1.07 1.77-3.23 1.92-4.9.63-7.04.77-14.16.76-21.22 0-4.12-.1-8.24-.27-12.36-.03-.76-1.58-.5-1.55.13a294.32 294.32 0 0 1-.44 32.8c-.1 1.56-.2 5.45-2.54 5.02-2.98-.55-4.84-4.96-5.8-7.39-1.25-3.12-1.97-6.42-3.04-9.6-2.11-6.3-5-12.2-7.92-18.16-3.03-6.2-9.3-16.74-17.38-10.95-3.1 2.22-5.37 5.54-7.35 8.72-2.35 3.79-4.34 7.8-6.17 11.85-1.53 3.4-2.92 6.87-4.32 10.33a75.9 75.9 0 0 1-4.45 9.68c-.61 1.06-1.22 2.15-1.96 3.13-.4.53-.85 1.1-1.42 1.45-1.12.7-2.15-.18-2.84-1.04-1.99-2.47-1.97-6.1-2-9.1-.02-3.87.26-7.73.57-11.58.63-7.74 1.21-15.49 1.87-23.23.58-6.8 1.33-13.6 1.89-20.4.14-1.81.3-3.62.53-5.42.1-.82.2-1.66.4-2.47.03-.1.28-.76.25-.8-.06-.11-1.2-.1-.8.16.5.34 1.69.34 2.28.46a653.06 653.06 0 0 0 17.7 3.21c4.29.7 8.6 1.37 12.92 1.74 5.82.49 11.97.12 17.74-.7 2.18-.31 4.2-1.3 6.28-1.97.6-.2 1.99-.81 2.58-.4.39.28.34 1.2.4 1.58.16.93.31 1.85.45 2.78 1.01 6.75 1.6 13.56 2.05 20.37.21 3.31.38 6.62.52 9.93.03.76 1.58.5 1.55-.13" fill="#6A79A8"></path><path d="M10.3 201.57c14.36 1.47 29.02 2.92 43.58 2.27 5.54-.25 11.06-.68 16.52-1.38.94-.12.7-.65-.23-.54-8.6 1.1-17.66 1.7-26.44 1.51-7.05-.15-14.12-.79-21.1-1.38-3.81-.32-7.61-.66-11.4-1.05-.53-.05-1.8.48-.93.57M21.32 209.5a11.97 11.97 0 0 1-6 6.9c-.27.14-.45.32-.2.53.25.2.95-.1 1.19-.22a13.2 13.2 0 0 0 6.68-7.5c.14-.39-1.5-.2-1.67.3" fill="#6A79A8"></path><path d="M64.63 154.6l-.03-.11-.67-2.13-.08-.23c1.7-1.65 3.29-3.25 5-4.9a9.98 9.98 0 0 1-2.32-2.38c-.6-.88-.84-2.07-1.45-2.88-.72.92-1.5 1.7-2.8 1.66-1.05-.04-1.88-.7-2.59-1.59a38.44 38.44 0 0 0-2.64-4.38l-.02-.02c-4.6-6.5-10.56-9.58-18.28-6.34a22.66 22.66 0 0 0-7.62 5.6l-.1.12-.84.93-.28.34c-.2.24-.4.47-.59.72l-.17.21c-.26.32-.53.6-.74.96-.04.06-.1.12-.13.18l-.29.4-.45.45c-.4.34-1.04.84-1.59.89-.48.04-1.03-.59-1.29-.96a3.31 3.31 0 0 1-.37-.72c-.04-.11-.28-.67-.21-.77a27.8 27.8 0 0 1-5.58 5.83c1.5 1.7 2.71 4.25 2.62 6.57-.01.39-.08.79-.18 1.19-.79 1.73-1.56 3.54-2.3 5.4l-.04.09-.02.06c-4.7 12.64-7.23 25.72-9.58 39.72-.02.1 24.5 4.45 33.26 4.49 21.47.1 28.74-4.14 28.74-4.15-2.56-26.73-5.57-41.6-6.37-44.26" fill="#FFF"></path><path d="M40.34 151.9c-1.86-1.52-3.4-3.71-5.26-5.23-1.77-1.44-4.12-2.82-5.6-4.56-1.4-1.64.56-2.87 1.79-4.4 1.08-1.34 1.92-2.62 3.21-3.75 5.06-4.46 11.24-5.32 17-1.73 3.37 2.1 6.03 5.4 8.06 8.87 1.35 2.32-.52 3.64-2.2 5.31-1.51 1.5-3.2 2.81-5 3.9-1.57.93-3.66 1.83-5.46 1.67-.5-.05-.85-2.27-2.28-4.49-1.31 1.24-2.95 3.16-4.26 4.4" fill="#FFF"></path><path d="M58.68 145.44a20.72 20.72 0 0 1-6.76 5.19c-.76.35-2.32 1.12-3.34 1.42l-2.57-4.68c-.4-.75-1.73-.47-2.19.04l-3.39 3.73-9.14-7.9c-.86-.75-3.1.41-2 1.36l10.16 8.78c.55.47 1.57.27 2.02-.23l3.02-3.32 1.32 2.42c.67 1.21.93 1.98 2.5 1.69 4.75-.92 9.27-4.07 12.42-7.6 1.06-1.2-1.27-1.79-2.05-.9" fill="#E3E3E3"></path><path d="M58.55 143.31a20.54 20.54 0 0 1-5.89 5.15c-.76.42-1.56.78-2.36 1.1-.45.18-1.68.43-2 .78.43.24.58.26.46.06l-.04-.1c.02-.1-.28-.55-.34-.66a3155131.3 3155131.3 0 0 0-2.26-4.51c-.2-.4-1.27.01-1.47.25l-4.13 4.96 1.43-.33-9.46-8.93c-.32-.3-1.73.3-1.45.56l9.46 8.93c.3.28 1.2-.05 1.43-.32l4.12-4.95-1.47.25 1.9 3.8c.53 1.06.59 1.9 1.87 1.58 4.53-1.16 8.64-4.05 11.6-7.7.34-.42-1.15-.23-1.4.08M70.21 142.88c4.07-1.88 8.44-3.07 12.45-5.07 3.6-1.8 6.54-4.36 8.81-7.63 2.62-3.78 4.23-8.11 5.3-12.53.62-2.5 1.06-5.04 1.45-7.58.13-.8.7-7.46 1.55-7.42.35.02 1.78-.6 1-.64-1.2-.06-2.52.26-3 1.45-.48 1.16-.46 2.69-.64 3.93-.2 1.37-.4 2.74-.63 4.11-.84 5.13-1.95 10.27-4.26 14.98-2.2 4.51-5.47 8.5-10.05 10.88-4.12 2.14-8.67 3.35-12.88 5.3-.93.42.51.4.9.22" fill="#6A79A8"></path><path d="M58.93 114.32c.74-13.56-4.4-24.9-11.48-25.3-7.07-.42-13.4 10.23-14.14 23.79l-.14 2.43c-.4 7.52-.07 12.8.8 16.5 1.8 7.62 10.28 11.26 10.28 11.26s9.02-2.55 11.65-9.11c1.44-3.6 2.46-9.02 2.9-17.14l.13-2.43" fill="#FFF"></path><path d="M57.01 95.24c1.22-1 3.23-2.7 3.36-4.24.55 1.76.6 3.73 1.08 5.55.27 1.01.55 2.04.55 3.09 0 1.6-.65 3.18-1.59 4.55a25.86 25.86 0 0 1-3.35 3.77c.18.16.4-.16.41-.4l.13-2.96c-.22.18-.97.45-1.19.63l-1.44 1.18c.42-.62.5-1.42.2-2.1l-.37-.02c-.63.65-1.52.9-2.38 1.27l.5-.09c.01-.5-.08-1-.26-1.46-.36-.9-1.13-1.62-1.48-2.5-.53-1.36.18-1.2.94-2.28 1.12-1.6 3.35-2.73 4.9-4" fill="#BBDFF5"></path><path d="M29.1 96.1a24.26 24.26 0 0 1 7.56-8.15c3.19-2.07 7.27-3.76 11.15-3.94 2.89-.13 5.5 1.17 7.6 2.97 1.77 1.52 4.9 3.8 3 6.06a33.01 33.01 0 0 1-11 8.43 34.14 34.14 0 0 1-6.64 2.37c-1.01.25-2.18.27-3 .88-.4.3-1.75 1.87-1.75 2.35 0-.23-.65-2.84-.98-2.62-1.09.74-2.04 1.68-2.77 2.76-.16.25-.39.53-.5.8-.12.29-.07.6-.07.9-.01.38-.03.76-.07 1.13-.01.17-.2.83-.12.96-.37-.56-1-.91-1.35-1.48-.49-.77-.33-1.72-.4-2.58-.08-.92-.21-1.84-.4-2.75a3.47 3.47 0 0 0-1.19 1.92c-.13.58-.18 1.17-.35 1.75-.23.78-.69 1.58-.44 2.35-1.12-1-1.3-2.82-1.37-4.2-.07-1.55.18-3.09.6-4.57.26-.96.57-1.77 1.03-2.67.46-.9.94-1.8 1.46-2.67" fill="#BBDFF5"></path><path d="M34.73 131.72c-.88-3.76-1.03-7.67-.99-11.52.05-4.46.21-9.05 1.06-13.44.8-4.15 2.22-8.3 4.59-11.81 1.84-2.75 4.75-5.8 8.33-5.3 3.21.44 5.64 3.09 7.2 5.78 2.1 3.58 3.14 7.74 3.6 11.84.5 4.28.21 8.6-.13 12.89-.34 4.17-.84 8.43-2.15 12.42-.16.5-.61 1.23-.59 1.74.03.48.53 1.26.74 1.7.7 1.48 1.5 3.02 2.37 4.4.76 1.22 1.78 2.42 3.3 2.51 1.7.1 3-.87 3.99-2.18l-1.5.34c.56.93.83 1.98 1.35 2.91.5.86 1.2 1.44 1.75 2.22.5.7.47.61-.04 1.34-.34.47-.82.87-1.21 1.3l-2.84 3.03a.15.15 0 0 0-.07.13c2.49 7.97 3.76 16.3 4.78 24.58.53 4.2.96 8.42 1.38 12.64l.57 5.84c.06.64.52 2.24.33 2.77.03-.09 0-.07-.11.07-.1.11-.33.2-.46.26-.3.17-1.04.5-1.5.67-2.32.89-4.8 1.39-7.24 1.76-11.85 1.77-24.18.56-35.97-1.08a270.18 270.18 0 0 1-10.12-1.6c-1.31-.23-2.93-.3-4.16-.77-.61-.23-.47-.1-.35-.85a423.65 423.65 0 0 1 3.8-20.27 115.14 115.14 0 0 1 4.23-15.1 116.3 116.3 0 0 1 2.89-7.07c.8-1.85 1.23-3.6.74-5.6-.24-.97-.63-1.89-1.12-2.74-.22-.38-.89-1-.94-1.4-.1-.68.62-1.03 1.07-1.43 1.55-1.41 2.92-3 4.14-4.72l-1.5.34c.07 1.15 1.06 2.6 2.28 2.55 1.04-.03 2.03-.74 2.76-1.43a62.28 62.28 0 0 0 5.2-5.55c.06-.08-1.2-.07-1.5.28-1.23 1.5-2.6 2.89-3.96 4.29-.4.41-.8.86-1.23 1.25-.08.07-.58.54-.67.53-.28-.02-.76-.78-.9-1a3.15 3.15 0 0 1-.47-1.33c-.02-.35-1.37.17-1.5.35a29.14 29.14 0 0 1-5.44 5.8.15.15 0 0 0-.08.13c1.8 2.17 3.13 5.13 2.36 7.99-.54 2.04-1.71 3.85-2.44 5.83-.96 2.6-1.98 5.18-2.78 7.83-2.46 8.12-3.96 16.58-5.43 24.93-.4 2.25-.8 4.5-1.15 6.77.03.05.07.08.13.08 11.22 2.14 22.58 3.83 34 4.27 6.39.25 12.87.14 19.18-.98 2.84-.5 5.76-1.19 8.37-2.48.31-.16 1.02-.4 1.24-.72.17-.25 0-.06.05-.55.12-1.18-.26-2.62-.37-3.79-.27-2.8-.54-5.59-.83-8.38a282.1 282.1 0 0 0-2.6-19.77 123.72 123.72 0 0 0-2.65-11.88c-.32-1.1-.5-1.46.22-2.46 1.14-1.55 2.73-2.93 4.05-4.33.06-.06.11-.12.03-.18-.94-.8-1.8-1.7-2.4-2.78-.54-.93-.8-1.98-1.36-2.9-.21-.36-1.32.1-1.5.34-.9 1.2-1.84 1.57-2.99.6a8.25 8.25 0 0 1-1.7-2.28c-.7-1.25-1.4-2.54-2.01-3.83-.2-.42-.65-1.1-.67-1.55-.03-.62.5-1.54.69-2.16a40.2 40.2 0 0 0 1.12-4.8c.76-4.28 1.04-8.62 1.25-12.95.22-4.64-.2-9.37-1.57-13.82-1.74-5.6-5.83-12.35-12.55-11.08-6.8 1.28-10.44 8.8-12.12 14.9-1.28 4.67-1.56 9.5-1.72 14.32-.16 4.57-.12 9.27.93 13.75.07.3 1.59-.08 1.51-.41" fill="#6A79A8"></path><path d="M34 137.58a21.4 21.4 0 0 0 6.38 6.78c.98.69 2.31 1.88 3.54 1.6 4.07-.91 8.4-3.96 11.08-7.4.06-.07-1.22-.06-1.51.32a19.94 19.94 0 0 1-9.68 6.6l.78-.05a21.06 21.06 0 0 1-9.05-8.3c-.23-.4-1.64.27-1.53.45M53.88 128.11c.63 1.41-1.41 3.67-3.2 4.43-.96.41-2.1.56-3.12.4-1.82-.3-3.94-1.84-1.36-2.95.79-.35 1.71-.44 2.6-.5.52-.03.9-.1 1.43-.16a4.3 4.3 0 0 0 1.92-.5c.28-.18.48-.43.79-.6.3-.16.84-.36.94-.12M22.65 141.32a84.36 84.36 0 0 1-6.08-17.8c-1.3-5.88-2.18-12.1-1.82-18.14.36-6 2.16-12.52 8.05-15.27 5.75-2.69 12.02-.39 15.8 4.36 1 1.26 2.16 2.83 3.8 3.3 1.54.45 2.56-.52 2.6-2.02.02-.7-1.53-.41-1.55.17-.02.61.09.9-.46.8-.35-.07-.88-.59-1.13-.8-.59-.5-1.06-1.08-1.53-1.69-1.53-2-3.42-3.74-5.7-4.84a14.8 14.8 0 0 0-14 .8c-10 6.15-7.93 21.43-6.13 31.15a83.94 83.94 0 0 0 6.6 20.4c.28.57 1.8.1 1.55-.42" fill="#6A79A8"></path><path d="M40.92 156.24c-1.43 4.42-2.89 8.84-4.3 13.27-1.66 5.24-4.16 9.81-7.62 13.26.1 1.66 2.26 7.56 1.91 9.23 1.24-.65 6.13-3.63 7.39-4.34 2.52-1.44 4.78-15.76 5.17-20.04.2-2.16 1.34-11.87-.51-12.4l-.68-.2c-.53-.14-1.12.35-1.33 1.1l-.03.12" fill="#BBDFF5"></path><path d="M40.56 156.71c-1.3 4.1-2.6 8.2-3.88 12.32-1.11 3.59-2.47 7.07-4.53 10.17a27.4 27.4 0 0 1-1.44 1.98c-.42.53-1.34 1.2-1.6 1.81-.29.67.06 1.58.23 2.27.54 2.17 1.82 4.94 1.5 7.22-.1.6.75.6 1.06.42 1.43-.8 2.81-1.68 4.2-2.53 1.12-.69 2.55-1.28 3.5-2.23.84-.84 1.28-2.16 1.66-3.28.6-1.8 1.05-3.67 1.45-5.54.76-3.56 1.36-7.19 1.73-10.82.32-3.22.7-6.5.51-9.75-.06-1.1-.09-2.77-1.1-3.4-1.3-.81-2.86-.14-3.29 1.36-.25.88 1.21.88 1.41.2.51-1.8 1.28.18 1.4.95.22 1.52.14 3.11.07 4.64a108.65 108.65 0 0 1-2.18 16.74 51.25 51.25 0 0 1-1.26 4.97c-.32 1.02-.68 2.4-1.4 3.2-.84.9-2.29 1.48-3.31 2.1-1.34.83-2.67 1.68-4.04 2.44l1.07.42c.3-2.14-.75-4.64-1.28-6.66-.14-.54-.3-1.09-.4-1.64-.16-.69-.17-.66.2-1.12 1.07-1.36 2.16-2.62 3.08-4.1a40.26 40.26 0 0 0 4.08-9.33c1.3-4.21 2.64-8.41 3.97-12.62.27-.86-1.2-.87-1.4-.19" fill="#6A79A8"></path><path d="M42.05 151.18c.23-.21.5-.29.83.06.45.48.7 1.27.96 1.86.22.5.3.83-.4.89-.6.05-1.31-.1-1.93-.15-.99-.08-.28-1.52-.02-1.91.16-.24.35-.55.56-.75" fill="#BBDFF5"></path><path d="M42.44 151.78c-.17.15.52 1.18.6 1.38.18.44.34.9.51 1.36.06.16.12.31.16.47.04.16-.04.27.05.2-.31.22-1.39-.1-1.71-.15-.39-.05-.7.01-.79-.45-.05-.3.06-.65.15-.93.2-.66.59-1.38 1.03-1.88.5-.58-.71-.6-1-.25-.7.79-1.52 2.15-1.43 3.29.04.56.38.83.87.93.86.16 1.85.32 2.72.22.48-.05 1.2-.24 1.36-.81.18-.58-.3-1.38-.5-1.9-.26-.7-.62-1.79-1.33-2.14-.58-.3-1.24 0-1.7.4-.22.2-.1.43.13.5.28.1.66-.05.88-.24" fill="#6A79A8"></path><path d="M186.2 284c-1.56-.04-1.76-3-1.89-4-.4-3.26-.32-6.58-.27-9.86.07-4.24.22-8.49.3-12.73a227.37 227.37 0 0 0-.04-9.66c-.02-.45-.13-.97 0-1.4.17-.5.53-1.04.84-1.48.35-.5.8-.97 1.34-1.27.8-.44 1.74-.51 2.65-.56 1.61-.07 3.24-.08 4.83.21a9.6 9.6 0 0 1 4.38 1.9c.24.19.48.41.6.7.27.63-.43 1.8-.65 2.44a174.42 174.42 0 0 0-2.39 7.81c-1.05 3.78-2.02 7.57-3.03 11.36-.89 3.34-1.78 6.68-2.87 9.97-.65 1.95-1.3 4.33-2.7 5.93-.28.3-.65.65-1.1.64" fill="#E3E3E3"></path><path d="M197.43 251.14a190.3 190.3 0 0 0-1.58 5.62c-1.05 3.95-2.02 7.93-3.02 11.9a186.8 186.8 0 0 1-2.86 10.45c-.65 2.05-1.3 4.54-2.69 6.21-.27.33-.64.7-1.1.68-1.54-.05-1.75-3.14-1.87-4.2-.4-3.41-.32-6.9-.27-10.33.07-4.45.22-8.9.3-13.35.03-2.28.05-4.55.02-6.83 0-.5-.4-3.11.2-3.28.14-.04.27.04.4.07 4.47 1.2 7.56.9 11.41.77.25 0 1.29-.16 1.5-.02.44.32-.32 1.91-.44 2.3" fill="#FFF"></path><path d="M198.52 247.05c-3.78 10.65-5.43 21.94-9.14 32.6-.52 1.49-1.05 3.22-2.06 4.46-.04.04-.46.42-.47.47l.55-.12a.5.5 0 0 1-.2-.07c0-.02-.16-.09-.17-.11-.3-.55-.62-.9-.81-1.55-.54-1.83-.59-3.84-.66-5.73-.1-2.88-.06-5.76 0-8.63.15-7.43.49-14.87.17-22.3 0-.2-1.51.03-1.5.41.31 7.28 0 14.57-.16 21.86-.06 3.13-.12 6.27 0 9.4.08 1.91.12 4.02.79 5.84 1.06 2.84 3.73.85 4.67-.97 2.32-4.52 3.35-9.9 4.6-14.8 1.81-7.04 3.43-14.19 5.87-21.04.07-.21-1.35-.08-1.48.28" fill="#6A79A8"></path><path d="M231.32 279.75c-1.7 1.47-4.31-3.99-4.8-4.9-2.47-4.56-4.52-9.36-6.68-14.07-2.1-4.59-4.12-9.47-6.98-13.64-.71-1.04-1.42-2.2-.18-3.27.7-.6 1.67-.77 2.58-.92l12.4-1.95c.66 7.68 1.77 15.29 2.87 22.92.65 4.44 1.7 9.18 1.43 13.7-.05.72-.1 1.59-.64 2.13" fill="#E3E3E3"></path><path d="M230.37 276.76c-1.56 1.43-3.98-3.86-4.43-4.74-2.28-4.41-4.16-9.06-6.16-13.62-1.2-2.74-2.33-5.52-3.64-8.2-.33-.68-.67-1.35-1.03-2-.22-.41-1.2-1.53-1.1-2 0 0 1.8-.5 2.36-.6 1.76-.35 3.53-.64 5.28-1.03 1.67-.36 3.9-1.06 5.67-1.57l.42 3.84.59 4.83c.42 3.26.87 6.51 1.32 9.77.6 4.3 1.56 8.88 1.3 13.26-.03.7-.09 1.54-.58 2.06" fill="#FFF"></path><path d="M227.11 242.56c.89 7.75 2.05 15.45 3.17 23.17.38 2.63.76 5.26 1.01 7.91.15 1.56.4 3.35.04 4.9-.04.18-.19.43-.2.6 0 .06-.1.14-.1.18l-.05.07c-.2.18-.04.15.49-.1 0 .01-1.02-.69-1.1-.77-1.12-1.16-1.91-2.7-2.68-4.12-2.42-4.52-4.41-9.3-6.51-13.98-2.3-5.14-4.54-10.44-7.64-15.12-.26-.4-1.67.22-1.53.42 6.15 9.3 9.2 20.42 14.7 30.1.99 1.74 2.95 5.54 5.42 3.68.87-.66.86-2 .87-3 .03-2.37-.31-4.74-.61-7.07-1.2-9.11-2.7-18.17-3.75-27.3-.03-.32-1.58 0-1.53.43" fill="#6A79A8"></path><path d="M178.27 241.87c-.32-.37-.63-.77-.92-1.19-2.4-3.49-3.28-7.76-3.87-11.93-1.01-7.23-.2-14.18.38-21.44.6-7.6 1.37-15.19 2.54-22.72 1.95-12.52 7.04-46.27 27.72-38.42 15.5 5.89 26.73 36.42 34.23 66.69 2.16 8.68 4 14.22 5.56 21.4a4.02 4.02 0 0 1-2.9 4.7c-8.14 2.23-27.6 7.35-34.78 7.47-8.66.14-21.53 2.77-27.96-4.56" fill="#F7E080"></path><path d="M177.99 238.97c-.3-.36-.6-.75-.86-1.16-2.25-3.4-3.1-7.54-3.65-11.6-.98-7.02-.24-13.76.28-20.81.54-7.38 1.23-14.75 2.3-22.06 1.78-12.15 7.07-44.78 25.76-37.21 14.46 5.85 25.08 35.44 32.2 64.86 1.84 7.66 3.45 12.8 4.83 18.9a5.9 5.9 0 0 1-4.17 6.99c-8.38 2.32-24.37 6.52-30.56 6.6-8.1.11-20.1 2.63-26.13-4.51" fill="#FFEEA7"></path><path d="M195.71 163.7c-.65.23-1.34.35-2.03.28a7.05 7.05 0 0 1-2.5-.85 29.63 29.63 0 0 1-3.9-2.36c-.45-.32-.93-.57-1.42-.84-.44-.24-.8-.6-1.15-.96-.6-.62-1.41-1.47-1.69-2.28-.12-.37.24-.76.44-1.07.27-.42.57-.84.84-1.27.87-1.4 1.84-2.76 2.95-4 4.37-4.88 10.44-6.67 16.82-4.33 3.73 1.37 6.94 3.94 9.54 6.78.4.43.46.62.33 1.15-.11.5-.25 1-.42 1.49a9.3 9.3 0 0 1-1.37 2.7 23.64 23.64 0 0 1-3.68 3.73c-.26.21-.5.51-.79.67-.38.2-.87.3-1.3.36-.92.13-1.85.03-2.74-.2a12.4 12.4 0 0 1-2.26-.86c-.62-.3-1.31-1.02-2.05-.62-.42.23-.77.68-1.14.98-.44.37-.9.7-1.4 1-.34.19-.7.36-1.08.5" fill="#FFF"></path><path d="M209.14 130.08c-1.47-13.54-8.44-23.85-15.59-23.03-7.14.81-11.74 12.45-10.28 26l.26 2.42c.82 7.5 2 12.66 3.48 16.18 3.04 7.23 12.1 9.35 12.1 9.35s8.61-4.09 10.18-11.04c.86-3.8 1-9.34.11-17.46l-.26-2.42" fill="#FFF"></path><path d="M208.69 149c3.52.05 7.7-.9 10.5-2.9 4.81-3.42 4.03-10.13 3.15-15.2a47.34 47.34 0 0 0-6.68-17.34c-2.49-3.9-5.62-7.49-9.6-9.87a19.29 19.29 0 0 0-7.23-2.59c-2.68-.37-4.95.36-7.53.61-3.94.4-7.64 2.1-11 4.17-2.14 1.32-4.31 2.98-5.03 5.37-1.91 6.37 6.76 11.48 12.09 11.7 2.93.12 5.87-.76 8.28-2.41 1.91-1.3 4.77-3.87 4.56-6.4.29 3.54 2.6 6.84 2.76 10.3.22 4.5.15 8.9.82 13.38.44 2.99.6 11.12 4.9 11.18" fill="#F9AB98"></path><path d="M187.05 154.12a19.3 19.3 0 0 0 7.13 5.53c1.07.51 2.65 1.42 3.88 1.35 1.26-.08 2.8-1.44 3.77-2.15a21.37 21.37 0 0 0 6.12-6.48c.34-.59-1.16-.4-1.4.01a20.08 20.08 0 0 1-5.49 5.96c-.75.56-1.54 1.08-2.35 1.55-.19.11-.5.22-.66.37-.3.31.57-.26.65-.1-.07-.14-1.07-.33-1.24-.39a23.1 23.1 0 0 1-2.55-1.08 18.53 18.53 0 0 1-6.45-5.18c-.3-.39-1.75.17-1.4.6" fill="#6A79A8"></path><path d="M186.06 161.7c1.06.97 2.01 2 3.35 2.58 1.58.67 2.98 1.09 4.74 1.04 1.65-.05 2.7-1.49 3.64-2.69.5-.66 2.37-.08 2.86.23.97.6 1.66 1.38 2.84 1.33 1.07-.04 3.22.24 4.08-.38 1.86-1.35 3.15-3.34 4.35-5.21.82-1.3 2.75-.24 3.03.85.4 1.56-1.48 3.36-2.48 4.41a9.77 9.77 0 0 1-4.44 2.8c-2.85.78-5.31-.3-7.63-1.68-1.49 1.61-3.47 3.01-5.74 3.02-2.43 0-4.74-.94-6.76-2.16-1.21-.74-2.53-1.53-3.32-2.72-.26-.39-.84-1.32-.45-1.76.4-.45 1.6.02 1.93.34" fill="#F7E080"></path><path d="M211.53 157.38c-1.2 2.08-2.46 4.36-4.44 5.8-1.65 1.19-3.29 1.08-4.92.07-.39-.25-2.55-1.67-2.44-1.86.35-.58-1.18-.33-1.42.02-.58.81-1.15 1.64-1.83 2.38-1.4 1.5-2.98 1.57-4.8.77-2.38-1.05-4.38-2.86-6.18-4.7-.34-.34-1.8.22-1.45.58 2.36 2.41 5.58 5.39 9.15 5.55 3.05.15 4.94-2.37 6.53-4.6l-1.42.02-.18.29c-.04.07-.11.2 0 .28 2.52 1.74 4.77 3.72 8 2.55 3.28-1.19 5.17-4.29 6.82-7.17.33-.58-1.2-.38-1.42.02M180.12 163.15c-2.04 1.23-4 2.56-5.81 4.06-1.93 1.6-3.54 3.44-5.3 5.19-2.96 2.91-6.07 6.04-6 10.3.12 8.75 13.5 8.9 18.91 4.3a8.36 8.36 0 0 0 2.93-5.3 6.68 6.68 0 0 0-.34-3.13c-.17-.46-.62-.97-.62-1.45.01-.75 1.16-1.03 1.79-1.33.95-.47-.47-.74-1.01-.47l-2.1 1.02c-.1.04-.31.2-.31.32 0 .98.29 1.38.64 2.31.4 1.07.47 2.23.27 3.35a7.85 7.85 0 0 1-4 5.4c-4.14 2.33-11.78 2.12-13.95-2.57-2.1-4.55 1.34-8.78 4.54-11.94 1.61-1.6 3.1-3.32 4.8-4.84 2-1.8 4.24-3.34 6.57-4.75.91-.56-.48-.8-1.01-.47M198.93 147.93c.32-.36-.55-1.92-.7-2.2a5.83 5.83 0 0 0-2.45-2.5c-.9-.47-2.03-.13-2.87.26-.6.28-3.8 2-2.67 2.76.17.1.38.14.58.17 1.87.27 3.8.46 5.62.9.42.1.82.21 1.23.34.3.09.78.37 1.1.34.07 0 .12-.03.16-.07" fill="#6A79A8"></path><path d="M213.22 175a6.1 6.1 0 0 1-1.22-3.77c0-2.89 1.8-5.23 4-5.23s4 2.34 4 5.23c0 1.45-.45 2.76-1.17 3.7l-5.6.07" fill="#FFF"></path><path d="M183.74 155.27c-5.8 10.53-7.51 23.14-9.07 34.9a430.28 430.28 0 0 0-2.32 23.95c-.56 7.33-.7 14.98 1.53 22.09 1.75 5.6 5.46 9.54 11.23 10.96 5.28 1.3 10.85.77 16.22.43 4.44-.28 8.7-.55 13.09-1.39a275.74 275.74 0 0 0 16.26-3.73c2.38-.6 4.76-1.23 7.14-1.88 1.9-.5 4.1-.81 5.36-2.5 1.72-2.29.3-5.5-.31-7.96-.77-3.1-1.64-6.16-2.47-9.24-4.13-15.16-7.71-30.4-13.76-44.97-2.86-6.88-6.22-13.56-10.65-19.6-.87-1.17-1.73-2.44-2.82-3.42-.75-.66-2.1-1.23-2.57-2.12-.38-.71.17-2.04.28-2.86.18-1.26.27-2.53.3-3.8.2-6-.3-12.33-1.55-18.22-1.18-5.55-3.45-11.44-7.61-15.49-2.84-2.75-6.74-4.32-10.62-2.87-4.24 1.6-6.67 5.96-7.99 10.02-1.87 5.82-1.77 11.87-1.1 17.87a96.2 96.2 0 0 0 1.45 9.46 48.6 48.6 0 0 0 1.48 5.38c.11.31.75 1.4.75 1.62 0 .42-.88 1.33-1.11 1.68l-1.14 1.7c-.4.6 1.15.51 1.45.06l.96-1.44c.36-.53 1.1-1.27 1.27-1.9.14-.57-.31-1.23-.52-1.8a38.1 38.1 0 0 1-1.1-3.6 78.66 78.66 0 0 1-2.41-17.18c-.15-5.64.66-11.82 3.7-16.7 2.38-3.85 6.35-6.12 10.68-3.79 4.57 2.47 7.3 7.75 8.94 12.43 1.98 5.7 2.56 11.93 2.87 17.93.13 2.7.15 5.43-.16 8.12-.1.98-.36 1.93-.49 2.9-.1.77.17 1.07.75 1.6.7.64 1.54 1.12 2.24 1.77 1.2 1.15 2.17 2.63 3.15 3.98a74.01 74.01 0 0 1 5.83 9.57c6.73 13.09 11.05 27.43 14.74 41.62 1.7 6.54 3.44 13.07 5.15 19.6.35 1.33.68 2.66 1 4 .34 1.44 1 3.18.47 4.64-.82 2.26-4.1 2.53-6.16 3.07a423.6 423.6 0 0 1-14.93 3.74c-4.5 1.02-9.08 2.08-13.7 2.49-4.73.41-9.64.7-14.4.65-5.23-.05-10.97-.92-14.51-5.15-4.38-5.24-5-13.53-5.02-20.04 0-7.55.88-15.16 1.62-22.66 1.18-11.87 2.66-24.18 6.46-35.55.96-2.86 2.11-5.65 3.57-8.3.37-.67-1.18-.55-1.45-.07" fill="#6A79A8"></path><path d="M214.7 175.07a6.23 6.23 0 0 1-.99-4.46c.23-1.45 1.28-4.06 3.33-3.3 3.07 1.11 2.68 5.88 1.3 7.97-.48.73 1.24.73 1.62.16 1.9-2.9 1.45-9.78-3.56-9.43-4.83.34-5.3 6.75-3.26 9.75.4.58 2.02 0 1.56-.69" fill="#6A79A8"></path><path d="M215.97 170.75c.24 4.34 1.24 9.17-.73 13.27-2.34 4.87-8.13 8.02-13.43 8-4.28-.02-9.18-1.83-12.17-4.95a7.28 7.28 0 0 1-1.8-2.88c-.46-1.5-.1-2.41.53-3.72.79-1.65.55-3.43-.97-4.57-.5-.37-1.9.34-1.22.85 1.1.81 1.31 2.18.8 3.4-.32.76-.84 1.4-.94 2.25-.25 1.93.77 3.81 2.03 5.18 2.49 2.7 6.17 4.33 9.72 5.07 7.4 1.55 16.75-2.14 19.41-9.68 1.42-4.04.56-8.49.33-12.64-.04-.63-1.6-.28-1.56.42M135.93 268.47c-.14-2.08-.03-4.29-.06-6.4-.03-2.06-.05-4.12-.02-6.18l.15-12.79c0-.24-.83-.04-.83.4L135 256.3c-.02 2.07 0 4.12.02 6.19.04 2.1-.08 4.31.07 6.4.02.3.86 0 .83-.4M129.77 271.32c4.53-1.07 12.57-.86 14.78 3.46.25.47 1.65.11 1.43-.33-2.48-4.83-11.37-5.03-16.43-3.84-.86.2-.65.91.22.7" fill="#6A79A8"></path><path d="M145.9 270.5a23.66 23.66 0 0 0-10.22.12c-2.67.65-5.68 1.92-6.67 4.24-.12.27 1.29.13 1.43-.2 1.9-4.4 9.77-4.6 14.28-3.66.36.07 1.64-.4 1.18-.5" fill="#6A79A8"></path><path d="M154.15 238.94c-.47.25.43-.16-.11.05l-.55.2c-.4.15.14-.03-.14.05l-.72.18c-1.01.22-2.04.36-3.09.45-3.66.34-7.38.33-11.06.25-3.56-.08-7.14-.2-10.67-.58-1.9-.2-4.25-.56-5.72-1.23a3.59 3.59 0 0 0-3.3.2c-.71.45-1.25 1.52-.21 2 2.2 1 4.65 1.47 7.14 1.76 4.1.5 8.27.6 12.4.68 3.98.08 8.02.11 11.96-.34 2.51-.28 5.03-.7 7.16-1.86.88-.48 1.06-1.46.21-2-.95-.61-2.41-.3-3.3.2" fill="#E3E3E3"></path><path d="M159 233.16c-.06 3.57-10.41 6.17-23.11 5.8-12.7-.36-22.95-3.55-22.89-7.12.06-3.57 10.41-6.17 23.11-5.8 12.7.36 22.95 3.55 22.89 7.12" fill="#FFF"></path><path d="M155.23 238.56c-5.65 1-11.87 1.07-17.73.98-6.03-.08-12.39-.37-18.12-1.53-.4-.08-1.8.28-1.25.4 5.93 1.19 12.49 1.48 18.73 1.57 6.13.08 12.63-.02 18.54-1.06.9-.16.75-.52-.17-.36M155.92 241.35c-5.38 1.2-11.8 1.16-17.46 1.1-6.07-.06-12.4-.32-18.21-1.44-.51-.1-1.83.35-.96.52 6.3 1.2 13.25 1.45 19.82 1.47 5.73.02 12-.05 17.44-1.26 1.02-.22.1-.55-.63-.4" fill="#6A79A8"></path><path d="M107 225.11c4.13-25.2 15.23-74.15 37.94-62.28C159.4 170.39 167 202.03 171 233c0 0-26.34-.2-35.02-1.34-7.37-.96-28.98-6.55-28.98-6.55" fill="#FFF"></path><g transform="translate(107 161)"><mask id="b" fill="#fff"><use xlink:href="#a"></use></mask><path d="M1.73 11.7v4.23c0 .77 1.53.52 1.53-.13v-4.23c0-.77-1.53-.52-1.53.13M5.91 11.7v4.24c0 .74 1.53.46 1.53-.15v-4.23c0-.74-1.53-.47-1.53.15M10.1 11.84v4.23c0 .26 1.52.04 1.52-.41v-4.23c0-.26-1.52-.04-1.52.41M14.28 11.7v4.22c0 .8 1.53.58 1.53-.11v-4.23c0-.8-1.53-.58-1.53.11M18.47 11.84v4.23c0 .23 1.52.02 1.52-.41v-4.23c0-.23-1.52-.02-1.52.41M22.66 11.84v4.23c0 .24 1.51.03 1.51-.41v-4.23c0-.24-1.51-.03-1.51.41M26.84 11.84v4.23c0 .23 1.51.02 1.51-.41v-4.23c0-.23-1.51-.02-1.51.41M31.02 11.84v4.23c0 .2 1.52 0 1.52-.41v-4.23c0-.2-1.52 0-1.52.41M35.2 11.72v4.23c0 .68 1.52.38 1.52-.17v-4.23c0-.68-1.52-.38-1.52.17M39.39 11.84v4.23c0 .44 1.52.16 1.52-.41v-4.23c0-.44-1.52-.16-1.52.41M43.57 11.72v4.23c0 .68 1.52.38 1.52-.17v-4.23c0-.69-1.52-.38-1.52.17M47.76 11.84v4.23c0 .28 1.51.05 1.51-.41v-4.23c0-.28-1.51-.05-1.51.41M51.94 11.72v4.22c0 .71 1.52.42 1.52-.16v-4.23c0-.7-1.52-.41-1.52.17M56.12 11.7v4.24c0 .73 1.53.46 1.53-.15v-4.23c0-.73-1.53-.46-1.53.15M60.3 11.84v4.23c0 .32 1.52.08 1.52-.41v-4.23c0-.32-1.51-.08-1.51.41M-.35 20.3v4.23c0 .2 1.51 0 1.51-.41v-4.23c0-.2-1.51 0-1.51.4M3.83 20.3v4.23c0 .22 1.51 0 1.51-.41v-4.23c0-.22-1.51-.01-1.51.4M8 20.14v4.23c0 .84 1.54.64 1.54-.1v-4.23c0-.83-1.54-.63-1.54.1M12.2 20.3v4.23c0 .36 1.51.1 1.51-.41v-4.23c0-.36-1.51-.1-1.51.4M16.38 20.3v4.23c0 .29 1.52.06 1.52-.41v-4.23c0-.3-1.52-.06-1.52.4M20.56 20.18v4.23c0 .67 1.52.37 1.52-.17V20c0-.68-1.52-.37-1.52.17M24.74 20.16v4.23c0 .76 1.53.5 1.53-.14v-4.23c0-.75-1.53-.48-1.53.14M28.93 20.3v4.23c0 .21 1.52 0 1.52-.41v-4.23c0-.22-1.52-.01-1.52.4M33.11 20.3v4.23c0 .45 1.52.17 1.52-.41v-4.23c0-.46-1.52-.18-1.52.4M37.3 20.18v4.23c0 .67 1.52.36 1.52-.18V20c0-.66-1.52-.35-1.52.18M41.48 20.3v4.23c0 .47 1.52.18 1.52-.41v-4.23c0-.47-1.52-.18-1.52.4M45.67 20.19v4.23c0 .64 1.51.31 1.51-.2V20c0-.64-1.51-.32-1.51.19M49.85 20.3v4.23c0 .4 1.51.14 1.51-.41v-4.23c0-.41-1.51-.14-1.51.4M54.03 20.19v4.23c0 .64 1.52.32 1.52-.2V20c0-.64-1.52-.32-1.52.19M58.21 20.17v4.23c0 .72 1.53.44 1.53-.15v-4.23c0-.73-1.53-.45-1.53.15M62.4 20.16v4.23c0 .75 1.52.5 1.52-.14v-4.23c0-.75-1.53-.48-1.53.14M1.73 28.6v4.24c0 .82 1.53.61 1.53-.1V28.5c0-.82-1.53-.61-1.53.1M5.91 28.61v4.23c0 .8 1.54.55 1.54-.12V28.5c0-.79-1.54-.55-1.54.12M10.1 28.65v4.23c0 .65 1.52.33 1.52-.19v-4.23c0-.65-1.52-.34-1.52.19M14.28 28.63v4.23c0 .73 1.53.46 1.53-.15v-4.23c0-.74-1.53-.47-1.53.15M18.47 28.76v4.23c0 .44 1.52.16 1.52-.41v-4.23c0-.45-1.52-.17-1.52.4M22.66 28.76v4.23c0 .27 1.51.05 1.51-.41v-4.23c0-.27-1.51-.05-1.51.4M26.84 28.76v4.23c0 .29 1.51.06 1.51-.41v-4.23c0-.3-1.51-.06-1.51.4M31.02 28.76v4.23c0 .19 1.52-.01 1.52-.41v-4.23c0-.2-1.52 0-1.52.4M35.2 28.76v4.23c0 .45 1.52.17 1.52-.41v-4.23c0-.45-1.51-.17-1.51.4M39.39 28.76v4.23c0 .36 1.52.1 1.52-.41v-4.23c0-.36-1.52-.11-1.52.4M43.57 28.76v4.23c0 .23 1.52.02 1.52-.41v-4.23c0-.24-1.52-.02-1.52.4M47.76 28.76v4.23c0 .2 1.51 0 1.51-.41v-4.23c0-.2-1.51 0-1.51.4M51.94 28.76v4.23c0 .4 1.52.13 1.52-.41v-4.23c0-.4-1.52-.13-1.52.4M56.12 28.63v4.23c0 .73 1.52.45 1.52-.15v-4.23c0-.73-1.52-.45-1.52.15M60.3 28.76v4.23c0 .43 1.52.15 1.52-.41v-4.23c0-.43-1.51-.16-1.51.4M-.35 37.22v4.23c0 .38 1.51.12 1.51-.41V36.8c0-.39-1.51-.13-1.51.4M3.82 37.08v4.23c0 .78 1.53.53 1.53-.13v-4.23c0-.78-1.53-.54-1.53.13M8.01 37.22v4.23c0 .24 1.52.02 1.52-.41V36.8c0-.24-1.52-.03-1.52.4M12.2 37.22v4.23c0 .35 1.51.1 1.51-.41V36.8c0-.35-1.51-.1-1.51.4M16.38 37.22v4.23c0 .27 1.52.04 1.52-.41V36.8c0-.27-1.52-.05-1.52.4M20.56 37.22v4.23c0 .3 1.52.06 1.52-.41V36.8c0-.3-1.52-.07-1.52.4M24.75 37.1v4.24c0 .64 1.51.32 1.51-.2v-4.22c0-.64-1.51-.32-1.51.19M28.92 37.08v4.23c0 .75 1.53.49 1.53-.14v-4.23c0-.75-1.53-.48-1.53.14M33.11 37.22v4.23c0 .42 1.52.15 1.52-.41V36.8c0-.42-1.52-.15-1.52.4M37.3 37.22v4.23c0 .31 1.51.07 1.51-.41V36.8c0-.32-1.51-.08-1.51.4M41.47 37.08v4.23c0 .76 1.53.5 1.53-.14v-4.23c0-.75-1.53-.5-1.53.14M45.67 37.22v4.23c0 .34 1.51.1 1.51-.41V36.8c0-.34-1.51-.1-1.51.4M49.84 37.06v4.23c0 .83 1.54.63 1.54-.1v-4.23c0-.83-1.54-.62-1.54.1M54.02 37.07v4.23c0 .81 1.54.6 1.54-.11v-4.23c0-.82-1.54-.6-1.54.1M58.22 37.22v4.23c0 .27 1.51.05 1.51-.41V36.8c0-.28-1.51-.05-1.51.4M62.39 37.06v4.23c0 .84 1.54.65 1.54-.1v-4.23c0-.84-1.54-.64-1.54.1M1.73 45.52v4.23c0 .83 1.53.63 1.53-.1v-4.23c0-.83-1.53-.63-1.53.1M5.91 45.53v4.23c0 .8 1.54.57 1.54-.12v-4.23c0-.8-1.54-.57-1.54.12M10.1 45.54v4.23c0 .75 1.53.48 1.53-.14V45.4c0-.74-1.53-.47-1.53.14M14.29 45.68v4.23c0 .27 1.51.04 1.51-.41v-4.23c0-.27-1.51-.05-1.51.4M18.47 45.68v4.23c0 .25 1.52.03 1.52-.41v-4.23c0-.25-1.52-.04-1.52.4M22.66 45.57v4.23c0 .64 1.51.31 1.51-.2v-4.22c0-.64-1.51-.32-1.51.19M26.84 45.68v4.23c0 .28 1.51.05 1.51-.41v-4.23c0-.29-1.51-.06-1.51.4M31.02 45.68v4.23c0 .3 1.52.07 1.52-.41v-4.23c0-.3-1.52-.07-1.52.4M35.2 45.54v4.23c0 .77 1.53.53 1.53-.13V45.4c0-.78-1.53-.53-1.53.13M39.39 45.68v4.23c0 .19 1.52-.01 1.52-.41v-4.23c0-.2-1.52 0-1.52.4M43.56 45.52v4.23c0 .84 1.54.65 1.54-.1v-4.23c0-.84-1.54-.65-1.54.1M47.76 45.68v4.23c0 .35 1.51.1 1.51-.41v-4.23c0-.36-1.51-.1-1.51.4M51.93 45.53v4.23c0 .8 1.54.55 1.54-.12v-4.23c0-.79-1.54-.55-1.54.12M56.12 45.68v4.23c0 .25 1.52.03 1.52-.41v-4.23c0-.26-1.52-.04-1.52.4M60.3 45.68v4.23c0 .19 1.52-.01 1.52-.41v-4.23c0-.2-1.51 0-1.51.4M-.37 53.98v4.23c0 .83 1.54.63 1.54-.1v-4.23c0-.83-1.54-.63-1.54.1M3.82 53.98v4.23c0 .84 1.54.64 1.54-.1v-4.23c0-.84-1.54-.64-1.54.1M8 54v4.22c0 .79 1.54.54 1.54-.12v-4.23c0-.78-1.54-.54-1.54.12M12.2 54.03v4.23c0 .64 1.51.32 1.51-.2v-4.22c0-.65-1.51-.33-1.51.19M16.38 54.14v4.23c0 .28 1.52.05 1.52-.41v-4.23c0-.29-1.52-.06-1.52.4M20.56 54.14v4.23c0 .3 1.52.06 1.52-.41v-4.23c0-.3-1.52-.07-1.52.4M24.75 54.14v4.23c0 .23 1.51.02 1.51-.41v-4.23c0-.24-1.51-.03-1.51.4M28.93 54.14v4.23c0 .33 1.52.09 1.52-.41v-4.23c0-.34-1.52-.1-1.52.4M33.11 54.14v4.23c0 .36 1.52.1 1.52-.41v-4.23c0-.37-1.52-.11-1.52.4M37.3 54.14v4.23c0 .4 1.51.13 1.51-.41v-4.23c0-.4-1.51-.14-1.51.4M41.48 54.02v4.23c0 .68 1.52.38 1.52-.17v-4.23c0-.69-1.52-.38-1.52.17M45.66 54.01v4.23c0 .7 1.52.4 1.52-.16v-4.23c0-.7-1.52-.4-1.52.16M49.85 54.14v4.23c0 .38 1.51.12 1.51-.41v-4.23c0-.39-1.51-.13-1.51.4M54.03 54.14v4.23c0 .46 1.52.17 1.52-.41v-4.23c0-.46-1.52-.18-1.52.4M58.2 53.99v4.23c0 .8 1.54.58 1.54-.12v-4.23c0-.8-1.53-.58-1.53.12M62.4 54.14v4.23c0 .35 1.51.1 1.51-.41v-4.23c0-.36-1.51-.11-1.51.4M1.74 62.6v4.23c0 .3 1.51.07 1.51-.41v-4.23c0-.3-1.51-.07-1.51.4M5.92 62.6v4.23c0 .2 1.52 0 1.52-.41v-4.23c0-.22-1.52-.01-1.52.4M10.1 62.6v4.23c0 .37 1.52.12 1.52-.41v-4.23c0-.38-1.52-.12-1.52.4M14.29 62.6v4.23c0 .44 1.51.17 1.51-.41v-4.23c0-.45-1.51-.17-1.51.4M18.47 62.6v4.23c0 .45 1.52.17 1.52-.41v-4.23c0-.46-1.52-.18-1.52.4M22.66 62.6v4.23c0 .46 1.51.18 1.51-.41v-4.23c0-.47-1.51-.18-1.51.4M26.84 62.6v4.23c0 .29 1.51.06 1.51-.41v-4.23c0-.3-1.51-.07-1.51.4M31.02 62.47v4.23c0 .7 1.52.4 1.52-.16V62.3c0-.7-1.52-.4-1.52.16M35.2 62.45v4.23c0 .8 1.53.56 1.53-.12v-4.23c0-.8-1.53-.56-1.53.12M39.38 62.45v4.23c0 .8 1.54.58 1.54-.12v-4.23c0-.8-1.54-.58-1.54.12M43.57 62.6v4.23c0 .32 1.52.08 1.52-.41v-4.23c0-.33-1.52-.09-1.52.4M47.76 62.6v4.23c0 .25 1.51.03 1.51-.41v-4.23c0-.25-1.51-.04-1.51.4M51.93 62.46v4.23c0 .76 1.53.5 1.53-.14v-4.23c0-.76-1.53-.5-1.53.14M56.12 62.6v4.23c0 .35 1.52.1 1.52-.41v-4.23c0-.36-1.52-.1-1.52.4M60.3 62.45v4.23c0 .79 1.53.54 1.53-.12v-4.23c0-.78-1.53-.54-1.53.12M-.36 70.93v4.23c0 .72 1.53.44 1.53-.16v-4.23c0-.72-1.53-.44-1.53.16M3.82 70.92v4.23c0 .76 1.53.5 1.53-.14v-4.23c0-.76-1.53-.5-1.53.14M8.01 71.06v4.23c0 .27 1.52.05 1.52-.42v-4.22c0-.28-1.52-.06-1.52.4M12.19 70.92v4.23c0 .75 1.53.49 1.53-.14v-4.23c0-.75-1.53-.49-1.53.14M16.37 70.9v4.24c0 .8 1.54.58 1.54-.12V70.8c0-.8-1.54-.58-1.54.12M20.56 70.93v4.23c0 .72 1.52.43 1.52-.16v-4.23c0-.72-1.52-.43-1.52.16M24.74 70.93v4.22c0 .74 1.53.46 1.53-.14v-4.23c0-.74-1.53-.46-1.53.15M28.92 70.92v4.23c0 .75 1.53.49 1.53-.14v-4.23c0-.75-1.53-.49-1.53.14M33.11 71.06v4.23c0 .39 1.52.13 1.52-.42v-4.22c0-.4-1.52-.14-1.52.4M37.29 70.9v4.24c0 .8 1.53.59 1.53-.12V70.8c0-.82-1.53-.6-1.53.1M41.48 70.92v4.23c0 .74 1.52.47 1.52-.14v-4.23c0-.74-1.52-.47-1.52.14M45.66 70.93v4.22c0 .74 1.53.46 1.53-.15v-4.22c0-.74-1.53-.46-1.53.15M49.84 70.9v4.23c0 .82 1.54.6 1.54-.1V70.8c0-.82-1.54-.6-1.54.1M54.02 70.92v4.23c0 .76 1.54.51 1.54-.14v-4.23c0-.76-1.54-.51-1.54.14M58.22 71.06v4.23c0 .4 1.51.13 1.51-.42v-4.22c0-.4-1.51-.14-1.51.4M62.4 71.06v4.23c0 .23 1.51.02 1.51-.42v-4.22c0-.24-1.51-.02-1.51.4" fill="#DEF3F9" mask="url(#b)"></path></g><path d="M136.22 179.93l-5.8-3.73c-1.84-1.17-4.25-2.26-5.82-3.72-1.47-1.38.09-2.55 1.22-3.96 1-1.24 2.1-2.43 3.32-3.5 4.8-4.2 10.89-5.28 16.82-2.42 3.47 1.67 6.29 4.44 8.5 7.4 1.46 1.98-.32 3.24-1.9 4.8a25.85 25.85 0 0 1-4.78 3.7c-1.5.91-3.25 1.7-5.03 1.46-1.77-.25-1.75-2.24-2.82-3.53l-3.71 3.5" fill="#FFF"></path><path d="M108.65 222.45c2.53-13.21 5.75-26.53 11.3-38.95.33-.72-1.3-.58-1.53-.08-5.6 12.51-8.86 25.9-11.41 39.2-.13.64 1.53.4 1.64-.17" fill="#6A79A8"></path><path d="M152.74 175.83a20.2 20.2 0 0 1-6.24 5.52c-.72.4-2.18 1.24-3.15 1.6l-2.74-4.5c-.17-.28-.81-.6-1.12-.33-.25.21-2.27 3.08-2.94 3.77-.4.4-.6.8-1.2.57-.4-.16-.69-.55-1.01-.81l-8.17-6.45c-.88-.7-2.96.58-1.85 1.46l10.29 8.12c.55.44 1.53.17 1.94-.34l2.73-3.46 1.4 2.32c.72 1.17 1.02 1.91 2.5 1.53 4.55-1.17 8.74-4.55 11.59-8.23.96-1.23-1.32-1.69-2.03-.77" fill="#DEF3F9"></path><path d="M152.58 174.61a19.89 19.89 0 0 1-5.94 5.4c-.65.37-1.34.69-2.03 1-.37.17-1.78.54-1.94.84-.17.3.38.36.44.16.02-.07-.25-.41-.28-.47l-.97-1.6-1.64-2.72c-.25-.42-1.1-.2-1.35.11l-3.83 4.9 1.24-.21-9.9-7.9c-.52-.41-1.87.32-1.2.86l9.9 7.9c.33.25 1.01.08 1.24-.22l3.84-4.9-1.35.11 2.02 3.35c.54.89.8 1.98 2.02 1.68a20.43 20.43 0 0 0 4.9-2.28 21.39 21.39 0 0 0 6.11-5.58c.59-.76-.87-.97-1.28-.43" fill="#6A79A8"></path><path d="M144.06 191.57c.24.34 1.06.3 1.48.34.67.05 1.34.08 2.01.09 1.3.01 2.62-.33 3.89-.27.4.02 1.03-.13 1.36-.29.35-.16.22-.45-.2-.44-.34 0-.68.04-1.02.08-.66.08-1.31.19-1.98.2-1.27.01-2.57-.1-3.82-.26-.48-.06-1 .02-1.44.15-.23.06-.37.08-.33.27 0 .05.03.09.05.13" fill="#F2F2F2"></path><path d="M144.29 191.7c1.4.17 2.84.29 4.27.3 1.45.01 2.92-.37 4.35-.3.58.04 1.73-.64.64-.7-1.3-.06-2.62.29-3.92.3-1.44.02-2.9-.1-4.34-.28-.48-.06-1.9.57-1 .68M149 194.5a.5.5 0 1 1-1 0 .5.5 0 0 1 1 0" fill="#6A79A8"></path><path d="M151 146.84c.22-13.6-5.41-24.71-12.57-24.84-7.17-.12-13.15 10.8-13.37 24.4l-.04 2.43c-.13 7.54.41 12.8 1.44 16.48a14.9 14.9 0 0 0 4.77 7.13 22.56 22.56 0 0 0 5.19 3.34c.53.25 1.09.3 1.62.09a24.6 24.6 0 0 0 3.83-1.89c2.3-1.37 4.46-3.15 5.89-5.49.37-.61.69-1.26.93-1.94 1.32-3.65 2.13-9.12 2.26-17.27l.04-2.44" fill="#FFF"></path><path d="M151.93 134.52c2.83-3.58 2.64-9.28.14-13.15-2.5-3.86-6.87-5.97-11.21-6.31-4.35-.34-8.68.9-12.72 2.67-2.57 1.12-5.23 2.64-6.47 5.32-1.3 2.84-.61 6.44 1.23 8.9 1.84 2.46 4.65 3.9 7.52 4.53 2.87.64 5.82.55 8.75.45 1.88-.06 3.8-.14 5.54-.92 1.73-.78 3.26-2.43 3.43-4.46l3.8 2.97" fill="#BBDFF5"></path><path d="M127.1 170.06a21.2 21.2 0 0 0 5.06 4.74c1.41.96 3.38 2.41 5.15 2.17 1.98-.26 4.15-1.73 5.8-2.82 1.8-1.18 3.4-2.6 4.74-4.31.62-.8-.84-1.14-1.32-.53-2.01 2.6-5.23 5.14-8.37 6.11-2 .62-3.9-.9-5.47-2.04a19.72 19.72 0 0 1-4.16-4.05c-.47-.6-1.94.05-1.42.73" fill="#6A79A8"></path><path d="M172 233.18c-1.78-13.44-4.24-26.73-7.99-39.77-1.88-6.54-4.4-13.11-7.88-18.98-.78-1.3-1.61-2.58-2.52-3.79-.73-.97-1.6-1.78-2.3-2.77-.2-.3-.67-.74-.77-1.1-.08-.28-.04.38.14-.26l.2-.6c.36-1.2.65-2.42.88-3.65a73.56 73.56 0 0 0 .92-20.03c-.55-5.9-2.23-12.5-6.43-16.91-3.03-3.2-7.44-4.42-11.42-2.17-4.7 2.66-7.24 8.25-8.6 13.25-1.98 7.24-1.9 15.34-1.2 22.77.15 1.61.37 3.22.7 4.8.14.67.3 1.33.48 1.97.08.25.28.67.32.95.24.24.22.46-.04.64l-.65.96a94.77 94.77 0 0 0-6.78 11.47c-.39.8 1.15.86 1.47.2a87.68 87.68 0 0 1 6.12-10.45c.51-.77 1.61-1.79 1.59-2.78-.01-.56-.52-1.44-.67-2.02a30.2 30.2 0 0 1-.42-1.88c-1.18-6.13-1.19-12.73-.7-18.95.47-6.12 2.1-12.89 6.26-17.6 1.5-1.7 3.53-3.17 5.86-3.32 2.26-.14 4.31.96 5.91 2.48 4.4 4.17 6.08 10.92 6.65 16.74.32 3.26.21 6.57.09 9.84a69.5 69.5 0 0 1-.94 9.75c-.21 1.2-.48 2.4-.83 3.56-.25.85-.63 1.33-.2 2.1 1.17 2.02 2.96 3.58 4.25 5.53 3.98 5.98 6.58 12.86 8.7 19.7 4.1 13.24 6.46 27 8.27 40.73.1.76 1.63.37 1.53-.4" fill="#6A79A8"></path><path d="M119.15 179.4c-3.1.63-6.3.82-9.45.51-2.84-.28-6.05-.85-8.22-2.78-3.74-3.34-4.4-8.68-3.57-13.28 1.07-5.83 3.79-11.22 4.78-17.08.5-2.96.97-6 1.2-9 .08-1.02.01-2.05-.81-2.8-.75-.7-2.06-.75-2.52-1.71-.27-.57-1.8-.1-1.56.4.28.59.69.9 1.27 1.2 1.3.7 2.12 1.2 2.07 2.84-.08 2.48-.6 5.07-.95 7.53-.75 5.18-2.58 9.91-4.08 14.9-1.22 4.07-1.95 8.38-.53 12.49 1.18 3.38 3.5 6.08 7.06 7.19 4.99 1.56 10.46 1.46 15.55.43.96-.2.72-1.04-.24-.85" fill="#6A79A8"></path><path d="M135 145.57a4.5 4.5 0 1 1-9-.14 4.5 4.5 0 0 1 9 .14" fill="#FFF"></path><path d="M133.52 146.15c-.12 2.15-1.54 4.23-3.72 3.94-1.9-.25-3.33-2.2-3.32-4.24 0-2.16 1.63-4.21 3.72-3.94 1.96.26 3.26 2.2 3.32 4.24.02.75 1.5.44 1.48-.16-.2-6.76-9.84-6.55-10 .03-.16 6.82 9.62 6.47 10-.03.04-.73-1.44-.45-1.48.16" fill="#6A79A8"></path><path d="M148 145.57a4.5 4.5 0 1 1-9-.14 4.5 4.5 0 0 1 9 .14" fill="#FFF"></path><path d="M147.52 146.2c-.13 2.11-1.56 4.1-3.73 3.84-1.9-.23-3.31-2.12-3.3-4.11 0-2.12 1.64-4.09 3.72-3.84 1.95.24 3.25 2.12 3.3 4.11.03.78 1.5.5 1.49-.14-.09-2.85-2.12-5.08-4.86-5.06a5.23 5.23 0 0 0-5.14 5.07c-.16 6.71 9.62 6.43 10 0 .04-.77-1.45-.52-1.48.13" fill="#6A79A8"></path><path d="M148.08 144.95c1.14-.28 2.33-.46 3.58-.42.49.01 1.16.05 1.5.28.15.1.44.7.05.75-.98.14-.78.55.2.41 1.54-.2 2.34-1.3.63-1.75-1.93-.5-4.77-.05-6.58.4-1.04.25-.09.5.62.33M134.4 145.58c-.03-.44.36-1.18 1.12-1.01.62.14 1 .6 1.08 1.04.06.32 1.46.09 1.4-.27-.4-2.15-5.14-1.52-5 .51.02.3 1.42.1 1.4-.27" fill="#6A79A8"></path><path d="M173.95 242.72c-.23-4.92-1.26-10-4.4-13.93-.25-.32-.51-.62-.79-.92-7.49-8.1-19.73-1.75-26.8 3.28-1.62 1.15-10.3 1.15-11.92 0-7.07-5.03-19.31-11.38-26.8-3.28-.28.3-.54.6-.8.92-3.13 3.93-4.16 9.01-4.39 13.93-.26 5.73.57 11.65 1.5 17.29.42 2.56.92 5.1 1.5 7.62.52 2.24.84 4.42 1.3 6.65l2.02 9.77c.24 1.12.2 2.9 1.2 3.58 1.15.78 2.32.22 3.15-.73 1.78-2.03 2.11-4.9 2.6-7.5.51-2.65 4.17-42.15 5.27-42.14h38.82c1.1-.01 4.76 39.49 5.26 42.15.5 2.58.83 5.46 2.6 7.49.84.95 2 1.51 3.16.73 1-.69.96-2.46 1.2-3.58l2.02-9.77c.46-2.23.78-4.41 1.3-6.65.58-2.52 1.08-5.06 1.5-7.62.93-5.64 1.76-11.56 1.5-17.29" fill="#9FCDED"></path><path d="M173.95 242.82c-.23-4.95-1.26-10.05-4.4-14-.25-.32-.51-.63-.79-.93-7.49-8.14-19.73-1.76-26.8 3.3-1.62 1.15-10.3 1.15-11.92 0-7.07-5.06-19.31-11.44-26.8-3.3-.28.3-.54.6-.8.93-3.13 3.95-4.16 9.05-4.4 14-.23 5.32.46 10.81 1.3 16.1.4 2.45 1.14 6.45 1.7 8.87.53 2.26.84 4.48 1.3 6.74l2.03 9.82c.24 1.13.03 3.28 1.2 3.6 2.71.72 3.05-5.67 3.55-8.26.43-2.3 3.78-34.02 4.7-43.13a2.49 2.49 0 0 1 2.67-2.24c3.61.28 11.3 1.58 19.13 1.5 8.37-.08 16.9-1.54 20.78-1.63 1.18-.03 2.15.9 2.19 2.1.24 8.72 3.86 41.09 4.3 43.4.49 2.6 1.16 8.82 3.22 8.25 1.17-.32 1.28-2.46 1.52-3.59l2.02-9.82c.47-2.26.78-4.48 1.3-6.74.57-2.42 1.31-6.42 1.7-8.88.85-5.28 1.54-10.77 1.3-16.1" fill="#BBDFF5"></path><path d="M130.93 230.25c-8.04-5.8-20.9-11.86-28.5-2.09-4.24 5.43-4.7 12.93-4.33 19.59.44 8.28 2.36 16.32 3.83 24.44.73 4 1.75 7.97 2.4 11.99.18 1.09.18 2.4 1.03 3.2.75.7 1.87.75 2.8.42 3.71-1.32 4.18-6.9 4.63-10.31.93-7.17 1.7-14.36 2.53-21.54.53-4.53 1.07-9.05 1.65-13.57.2-1.58.41-3.16.65-4.73.09-.56.22-1.74.38-2.05.33-.64-1.16-.47-1.4-.03-.63 1.2-.6 3.06-.78 4.37-.44 3.24-.84 6.49-1.23 9.74-.9 7.55-1.76 15.1-2.65 22.66-.24 2.09-.46 4.19-.77 6.27-.28 1.84-.56 3.8-1.24 5.54-.3.76-.7 1.68-1.3 2.24-1.32 1.2-2.27.22-2.56-1.03-.33-1.44-.5-2.95-.8-4.4-1.5-7.4-3.14-14.8-4.34-22.26-1.1-6.96-2.1-14.22-.9-21.25 1.2-7.02 5.5-14 13.2-13.63 5.92.3 11.57 3.62 16.3 7.03.43.3 1.8-.3 1.4-.6M156.06 235.76c-.32-.06-.06.08-.02.37.06.4.2.8.27 1.2.23 1.22.41 2.44.59 3.67.55 3.83 1 7.67 1.45 11.52.9 7.79 1.71 15.6 2.6 23.38.35 3.02.6 6.3 1.86 9.06 1 2.17 3.09 4.02 5.4 2.46.93-.63 1.14-1.65 1.3-2.72.28-1.83.68-3.63 1.04-5.44 1.66-8.16 3.46-16.34 4.58-24.6.97-7.17 1.66-15.1-.96-22.01-1.25-3.3-3.4-6.41-6.46-8.13a13.36 13.36 0 0 0-7.97-1.43c-6.05.62-11.7 3.86-16.58 7.39-.65.46.85.37 1.17.14 4.43-3.2 9.58-6.27 15.07-6.81 6.57-.65 11.44 3.82 13.53 9.97 2.28 6.7 1.65 14.23.71 21.12-1.02 7.54-2.63 15-4.14 22.45l-1.12 5.52c-.14.69-.25 1.37-.35 2.06-.04.27-.08.55-.14.82-.05.26-.13.51-.23.76l-1.62.37c-1.2-.3-2-2.83-2.3-3.88-.41-1.37-.66-2.82-.88-4.24-.29-1.77-.45-3.56-.64-5.34-.84-7.53-1.64-15.06-2.52-22.58-.45-3.78-.9-7.57-1.46-11.33-.11-.75-.22-4.28-1.23-4.47-.4-.07-1.74.57-.95.72" fill="#6A79A8"></path><path d="M124.21 237.46c8.2.05 16.4.05 24.6 0 .34 0 1.71-.46.98-.46-8.2.05-16.4.05-24.6 0-.34 0-1.71.46-.98.46M134 161.8c-.52.1-1.25.26-1.67.18-.57-.12-.26-.48-.11-.7.32-.52.83-1.06 1.41-1.51.86-.66 2.12-.9 3.54-.7.76.1 1.43.35 1.97.65.55.32 1.34.84.48 1.21-.28.13-.64.18-.98.22l-4.38.61-.26.04M102.42 133.02c-.5.12-1.16.31-1.36.96-.22.7.23 1.25.48 1.82.21.47 1.12.03.88-.51-.15-.35-.43-.64-.44-1.06 0-.34.41-.34.62-.39.2-.05.45-.3.4-.56-.07-.3-.39-.3-.58-.26" fill="#6A79A8"></path><path d="M101.89 133.51c.05.43.02.83-.19 1.2-.18.34-.44.62-.66.93-.15.23.14.35.3.36.25.01.56-.1.71-.33.27-.38.6-.73.79-1.17.18-.4.19-.86.13-1.3-.05-.4-1.14-.14-1.08.31M158.12 182.66a15.46 15.46 0 0 1 5.32 10.94c.17 4.2-1.63 8.2-4.29 11.37-6.09 7.25-15.83 10.3-24.77 6.78-.4-.16-1.8.46-1.25.68 8.96 3.52 19 .9 25.8-5.73 3.3-3.23 5.84-7.5 6.05-12.2.22-4.75-1.87-9.3-5.41-12.41-.36-.31-1.79.27-1.45.57" fill="#6A79A8"></path><path d="M133.77 212.75l1.15-1.28c.15-.17.08-.39-.09-.45-.2-.07-.44.05-.6.23l-1.15 1.28c-.15.17-.08.39.09.45.2.07.44-.05.6-.23" fill="#6A79A8"></path><path d="M133.42 212l1.05-.17c.2-.03.5-.17.53-.47.03-.3-.26-.38-.42-.36l-1.05.17c-.2.03-.5.17-.53.47-.03.3.26.38.42.36M84.33 220.56l-2.48 22.41-3.93 35.4-.92 8.24c-.07.66 1.6.4 1.67-.17l2.48-22.41 3.93-35.4.92-8.24c.07-.66-1.6-.4-1.67.17M139 222.65l2.85 22.02 4.55 35.07 1.04 8.02c.06.5 1.63.15 1.56-.41l-2.85-22.02-4.55-35.07-1.04-8.02c-.06-.5-1.63-.15-1.56.41M59.46 265.49l3.22-21.3c1.7-11.35 3.42-22.68 5.13-34.02l1.19-7.88c.08-.53-1.4-.26-1.46.22l-3.22 21.3-5.13 34.02-1.19 7.88c-.08.53 1.4.26 1.46-.22" fill="#6A79A8"></path><path d="M85.18 201h-20.9c-.94 0-1.56 1.01-1.15 1.89 2.28 4.84 8.67 17.54 14.42 20.77 1.38.77 63.45 0 63.45 0v-5.95h-33.63c-12.89 0-22.2-4.9-22.2-16.71" fill="#E3E3E3"></path><path d="M62.51 201.39c-1.53 2.5.75 5.3 1.96 7.52 1.64 3 3.43 5.91 5.42 8.7 1.7 2.39 3.57 4.78 6.08 6.41.65.43 1.05.62 1.78.7 4.32.44 8.79.22 13.12.24a3317.7 3317.7 0 0 0 49.55-.32c.5 0 1.03.02 1.55-.02.15 0 .3.01.46-.02 1.48-.3.95-1.37 1.51-2.42.38-.7-1.18-.6-1.45-.1-.14.26-.53 2.14.17 1.57-.05.04-.26 0-.32 0-.47.08-1 .02-1.47.02a4997.6 4997.6 0 0 1-24.7.23c-12.04.09-24.14.4-36.19-.06-.6-.02-1.23 0-1.82-.1-.18-.04-.23-.05-.11 0-1.56-.63-2.93-2.1-4.03-3.31a54.9 54.9 0 0 1-5.96-8.39c-1.03-1.7-2-3.43-2.93-5.18-.88-1.66-2.3-3.52-1.16-5.38.4-.66-1.16-.58-1.46-.1" fill="#6A79A8"></path><path d="M86.4 201H64s7.96 17.84 14.95 21.67c1.35.74 62.05 0 62.05 0V217h-32.89c-12.6 0-21.7-4.7-21.7-15.99" fill="#FFF"></path><path d="M87.1 200H64.86c-.26 0-1.02.36-.83.79 2.94 6.58 6.52 13.46 11.36 18.69 1.4 1.52 2.94 3.16 5 3.3 1.9.13 3.8.13 5.69.15 14.27.17 28.54-.01 42.81-.15l12.27-.13c.29 0 .84-.26.84-.63v-5.64c0-.41-.37-.5-.69-.5H110.4c-3.92 0-7.86-.14-11.66-1.3-2.93-.89-5.8-2.36-7.86-4.82-2.15-2.57-3.05-5.86-3.09-9.26 0-.8-1.53-.55-1.52.14.06 5.93 2.77 10.78 7.79 13.43 4.57 2.42 9.8 2.93 14.83 2.94h32.27l-.68-.5v5.65l.83-.63c-10.2.12-20.41.21-30.62.27-7.05.05-14.1.08-21.16.04-2.33-.02-4.66-.04-7-.11-.64-.02-1.29-.04-1.93-.1-.71-.06-.8-.19-1.57-.76-3.95-2.94-6.76-7.82-9.2-12.13-1.55-2.72-3.01-5.52-4.3-8.39l-.82.78h22.25c.84 0 1.17-1.12.14-1.12" fill="#6A79A8"></path><path d="M86.85 218.26c15.1.3 30.2.77 45.3.74.58 0 1.55-.12 1.8-.56.2-.4-.2-.7-.8-.7-15.1.04-30.21-.43-45.3-.74-.57-.01-1.56.12-1.8.56-.2.4.2.68.8.7" fill="#E3E3E3"></path><path d="M86.73 216.62l46.48 1.38c1.48.04 2.73-1.35 2.78-3.12l.01-.18c0-.1-.07-.2-.15-.2l-7.91-.23-.86-.1c-2.47.64-3.16-4.9-3.36-6.46a577.2 577.2 0 0 1-2.26-24.21 3.22 3.22 0 0 0-3.04-3.02c-8.03-.36-30.72-.46-38.22-.48a2.22 2.22 0 0 0-2.19 2.48c.85 8.2 3.7 33.88 6.15 34.15l2.57-.01" fill="#FFF"></path><g fill="#DCDCDC"><path d="M100 203c2.17 0 4.04-1.2 4.88-2.94.07-.19.1-.35.12-.47a1.88 1.88 0 0 0-.77-1.55l-.09-.04c0 2.13-1.86 3.86-4.13 3.86h-.02c-2.27 0-4.13-1.73-4.13-3.86l-.09.04c-.21.15-.75.62-.77 1.55.01.12.05.28.12.47a5.38 5.38 0 0 0 4.87 2.94h.02M100 193.6l5 3.4c.01-.23-.02-1.23-1.5-2.5l-2.96-2.32a.97.97 0 0 0-.53-.18h-.02a.97.97 0 0 0-.53.18l-2.95 2.32c-1.49 1.27-1.52 2.27-1.5 2.5l4.99-3.4"></path></g><path d="M86.3 216.65l28.53.82 15.88.45c.86.03 1.75.11 2.61.07a3.79 3.79 0 0 0 3.6-2.93c.22-1.01.04-1.41-.96-1.48-2.51-.18-5.05-.05-7.56-.22-.38-.03-1.04.04-1.38-.05-.87-.24-1.28-1.33-1.55-2.09-.53-1.5-.73-3.11-.93-4.69-.59-4.62-1.02-9.27-1.44-13.92l-.57-6.66c-.12-1.46.12-3.54-1.03-4.64-1-.96-2.56-.8-3.85-.83a1472.26 1472.26 0 0 0-16.92-.28 3654.96 3654.96 0 0 0-17.6-.13c-1.22-.01-2.54-.15-3.74 0-3.45.46-2.23 4.39-1.96 6.73.4 3.55.84 7.1 1.32 10.63.5 3.65 1.04 7.29 1.74 10.9.45 2.37.82 5.04 1.95 7.21.24.45.54.98 1.1 1.09.58.1 1.84-.78.92-.95-.92-.17-1.5-3.57-1.68-4.32-.75-3.1-1.26-6.25-1.75-9.4-.97-6.27-1.81-12.6-2.41-18.92-.1-.97.12-1.8 1.2-1.99.56-.09 1.22.01 1.78.01a5063.83 5063.83 0 0 1 15.64.12c6.97.07 13.94.1 20.9.34.98.03 1.9.08 2.38 1.08.34.7.28 1.64.34 2.41a709.3 709.3 0 0 0 1.78 19.1c.32 2.81.3 6.61 2 9.04 1.1 1.59 3.41 1.22 5.15 1.27l4.56.13c.4.01.9-.06 1.28.04.34.09-.2-.15-.2-.15-.07.74-.16 1.4-.73 1.97-.86.84-2.07.55-3.2.51l-14.22-.4c-9.94-.29-19.87-.62-29.81-.86l-.6-.02c-.68-.02-1.62.98-.57 1" fill="#6A79A8"></path><path d="M85.48 211.5l32.84.44 4.67.06c.72.01 1.56-.49.53-.5l-32.84-.44-4.67-.06c-.72-.01-1.56.49-.53.5" fill="#6A79A8"></path><path d="M179 7.84v73.92c0 3.74-2.9 6.77-6.48 6.77H89.35c-5.76 0-16.28 2.47-16.28 2.47s4.57-5.35 5.27-6.6c.68-1.18 1.26-2.19 1.37-3.42.2-2.24 0-4.52 0-6.76V7.84c0-3.74 2.9-6.77 6.48-6.77h86.33c3.58 0 6.48 3.03 6.48 6.77" fill="#FFA2AF"></path><path d="M173.65 11.72v69.52a6.26 6.26 0 0 1-6.15 6.37H88.53c-5.47 0-15.46 2.32-15.46 2.32s4.34-5.03 5-6.2c.65-1.12 1.2-2.07 1.3-3.23.19-2.1 0-4.25 0-6.36V11.72a6.26 6.26 0 0 1 6.15-6.37h81.98c3.4 0 6.15 2.85 6.15 6.37" fill="#FF90A1"></path><path d="M179 7.37v72.5a8.6 8.6 0 0 1-.6 3.61c-1.82 4.07-5.77 4.02-9.63 4.02H96.6c-5.02 0-9.89 0-14.86.8-2.74.46-5.48.99-8.2 1.62-.24.06-1.85-.22-1.5-.64 2.37-2.77 6.04-6.1 6.55-9.86.4-3.06 0-6.3 0-9.4V50.6 7.97c0-3.65 1.67-7.16 5.64-7.81.96-.16 1.96-.1 2.93-.1h78.67c3.27 0 7.2-.51 10.03 1.4a7.24 7.24 0 0 1 3.13 5.9c.01.3-1.7.07-1.71-.45-.12-3.36-2.38-6.12-5.83-6.12H89.48c-.97 0-1.94-.03-2.91 0-3.96.14-6.24 3.35-6.26 7.07-.08 13.12 0 26.24 0 39.36v25.77c0 2.98.64 6.38-.73 9.15-.81 1.66-2.03 3.06-3.2 4.48-.9 1.1-1.8 2.18-2.72 3.26l-1.5-.64c5.8-1.36 11.76-2.47 17.73-2.47h75.68c2.49 0 5.73.54 8.04-.56 2.43-1.15 3.62-3.61 3.68-6.2.15-6.5 0-13.04 0-19.55V27.6 6.9c0-.31 1.71-.06 1.71.46" fill="#6A79A8"></path><path d="M133.84 57.17l1.29-36.88c.06-1.74-1.95-3.17-4.45-3.16l-2.9.01c-2.5.02-4.5 1.46-4.42 3.2L125 57.21c.07 1.67 2.04 3 4.44 2.99 2.4-.02 4.35-1.36 4.41-3.03zm.7 13.6c.46-3.41-2.72-6.32-6.22-5.61-2.34.47-3.81 2.36-3.85 4.86.02 2.83 2 4.94 5.06 4.92 2.75-.01 4.67-1.75 5-4.17z" fill="#FFF"></path></g></svg>