<svg version="1.1" xmlns="http://www.w3.org/2000/svg" style="display: block;" viewBox="0 0 2048 2048" width="1024" height="1024">
<defs>
	<linearGradient id="Gradient1" gradientUnits="userSpaceOnUse" x1="1804.28" y1="160.829" x2="1785.68" y2="157.352">
		<stop class="stop0" offset="0" stop-opacity="1" stop-color="rgb(1,0,5)"/>
		<stop class="stop1" offset="1" stop-opacity="1" stop-color="rgb(10,0,26)"/>
	</linearGradient>
	<linearGradient id="Gradient2" gradientUnits="userSpaceOnUse" x1="543.913" y1="332.838" x2="559.289" y2="419.657">
		<stop class="stop0" offset="0" stop-opacity="1" stop-color="rgb(0,0,1)"/>
		<stop class="stop1" offset="1" stop-opacity="1" stop-color="rgb(10,1,19)"/>
	</linearGradient>
</defs>
<path transform="translate(0,0)" fill="rgb(254,254,254)" d="M 0 0 L 2048 0 L 2048 2048 L 0 2048 L 0 0 z"/>
<path transform="translate(0,0)" fill="rgb(5,0,10)" d="M 314.155 249.369 C 335.873 249.037 372.368 255.116 395.162 257.709 L 574.667 279 L 1159.37 350.989 L 1707.69 418.637 L 1830.13 434.844 C 1849.6 437.259 1897.46 440.617 1914.01 446.697 C 1929.93 452.543 1942.5 466.557 1949.05 481.958 C 1954.98 495.906 1953.21 511.084 1951.63 525.703 C 1939.33 639.265 1922.19 752.496 1907.13 865.716 L 1822.96 1499.14 L 1793.93 1722.27 L 1782.87 1807.99 C 1780.42 1826.63 1780.44 1847.59 1772.99 1865.11 C 1765.35 1883.08 1751.01 1894.12 1733.37 1901.36 C 1730.71 1902.06 1728.03 1902.65 1725.32 1903.13 C 1703.89 1906.95 1676.17 1900.66 1654.44 1897.88 L 1585.41 1889.01 L 1342.92 1857.58 L 614.504 1761.03 L 354.244 1726.82 L 220.938 1709.27 C 195.946 1705.97 170.756 1703.23 145.86 1699.32 C 135.438 1697.69 125.588 1694.89 116.912 1688.58 C 105.283 1680.12 97.0043 1666.25 95.3098 1651.9 C 93.867 1639.68 96.8411 1625.84 98.16 1613.61 L 105.386 1548.25 C 114.852 1455.96 125.153 1363.75 136.287 1271.64 C 159.76 1066.94 184.754 862.416 211.268 658.084 L 240.52 420.129 C 245.333 381.645 249.038 342.765 255.135 304.473 C 256.975 292.92 260.267 282.497 267.635 273.232 C 279.382 258.461 295.849 251.619 314.155 249.369 z"/>
<path transform="translate(0,0)" fill="rgb(254,254,254)" d="M 245.291 435.984 L 1929.27 651.845 C 1926.63 665.747 1925.45 680.232 1923.63 694.29 L 1912.79 777.877 C 1901.52 857.201 1890.97 936.626 1881.16 1016.14 L 1816.61 1499.77 C 1806.57 1578.99 1796.09 1658.14 1785.15 1737.24 L 1775.92 1813.36 C 1774.3 1826.14 1773.1 1839.26 1770.37 1851.87 C 1768.64 1859.86 1765.06 1866.61 1760.9 1873.56 C 1757.12 1878.51 1753.1 1882.97 1748.08 1886.71 C 1736.85 1895.08 1723.78 1898.63 1709.88 1898.03 C 1691.96 1897.26 1673.51 1894.07 1655.7 1891.82 L 1560.37 1879.56 L 1266.17 1841.17 L 150.726 1693.7 C 135.037 1691.65 121.095 1687.59 111.18 1674.15 C 105.328 1666.22 101.146 1656.06 101.355 1646.13 C 101.628 1633.18 103.792 1619.85 105.113 1606.93 L 114.22 1522.54 C 124.067 1428.76 134.706 1335.06 146.135 1241.46 C 165.437 1073.4 185.981 905.479 207.766 737.719 L 228.087 574.714 C 233.635 528.463 238.438 482.067 245.291 435.984 z"/>
<path transform="translate(0,0)" fill="rgb(5,0,10)" d="M 857.278 1043.86 C 870.274 1043.79 943.092 1052.18 949.878 1058.05 C 952.912 1068.99 945.525 1106.85 944.883 1121.12 C 961.804 1128.87 977.466 1137.96 993.446 1147.41 C 1006.7 1138.26 1018.6 1127.52 1031.56 1118.04 C 1034.52 1115.88 1039.52 1111.97 1043.44 1113.02 C 1046.47 1113.83 1050.11 1117.27 1052.34 1119.43 C 1062.41 1129.17 1071.44 1140.54 1080.96 1150.86 C 1091.06 1161.81 1103.12 1172.55 1111.7 1184.65 C 1100.57 1199.81 1078.09 1217.43 1064.12 1231.42 C 1074.94 1250.74 1080.96 1269.16 1085.24 1290.78 C 1096.57 1292.24 1140.27 1294.99 1146.6 1301.56 C 1149.83 1312.25 1145.32 1333.95 1144.22 1345.9 C 1165.37 1341.65 1186.9 1338.73 1208.24 1335.61 C 1224.46 1289.53 1245.13 1250.26 1284.47 1219.59 C 1330.45 1183.75 1388.95 1165.79 1447.09 1173.28 C 1507.87 1181.1 1560.13 1212.03 1597.37 1260.42 C 1632.26 1305.75 1645.88 1362 1638.46 1418.41 C 1630.87 1477.39 1599.84 1530.83 1552.37 1566.66 C 1506.01 1601.86 1447.23 1619.26 1389.27 1611.02 C 1328.7 1602.42 1277.35 1569.71 1241.12 1521.09 C 1213.57 1478.86 1201.72 1437.7 1201.49 1387.36 C 1181.98 1378.54 1160.81 1372.28 1140.6 1365.13 C 1139.38 1372.68 1139.24 1394.94 1133.85 1399.52 C 1120.79 1402.27 1085.21 1395.1 1069.7 1393.82 C 1061.31 1414.64 1051.72 1432.67 1038.24 1450.6 C 1050.72 1462.91 1067.91 1480.3 1077.5 1494.97 C 1069.72 1507.1 1051.71 1521.99 1040.87 1531.94 C 1032.13 1539.96 1012.73 1561.06 1000.64 1560.55 C 993.078 1556.17 969.557 1516.45 963.361 1507.2 C 943.582 1515.38 924.707 1521.05 903.664 1524.95 C 902.569 1538.14 901.896 1572.24 897.957 1582.94 C 897.169 1585.08 896.35 1586.22 894.146 1587.08 C 878.078 1593.37 816.382 1582.51 799.963 1575.36 C 799.528 1554.49 802.594 1533.1 804.026 1512.25 C 788.119 1506.97 774.103 1500.3 760.265 1490.82 C 742.975 1503.65 727.255 1518.54 709.771 1531.13 C 698.34 1521.56 653.89 1468.53 650.982 1454.82 C 652.47 1447.15 685.859 1418.24 693.4 1410.6 C 684.987 1390.69 678.993 1372.34 674.204 1351.31 C 665.21 1350.51 619.47 1346.19 614.734 1341.74 C 609.921 1337.22 610.607 1320.99 610.647 1314.7 C 610.721 1303.15 613.132 1250.77 622.61 1244.77 C 627.193 1241.87 672.008 1247.9 681.059 1248.29 C 688.078 1227.5 697.647 1209.64 709.355 1191.2 C 702.349 1183.55 668.893 1153.42 667.432 1145.27 C 667.092 1143.37 667.568 1142.61 668.51 1141.06 C 674.058 1131.88 718.871 1088.99 729.178 1081.01 C 732.042 1078.79 735.036 1076.88 738.578 1076.03 C 750.611 1081.97 770.604 1119.45 781.862 1132.49 C 803.045 1121.93 825.121 1115.51 848.751 1113.52 C 850.523 1099.01 850.733 1053.35 857.278 1043.86 z"/>
<path transform="translate(0,0)" fill="rgb(254,254,254)" d="M 860.52 1050.18 C 888.613 1052.19 916.94 1057.2 944.879 1060.94 C 941.719 1078.85 938.657 1107.06 938.989 1124.95 C 946.761 1129.57 955.46 1132.99 963.482 1137.24 C 973.592 1142.59 983.146 1148.9 992.823 1154.98 C 1010.35 1144.85 1026.18 1130.02 1042.29 1117.72 C 1049.49 1124.66 1056.01 1132.45 1062.84 1139.77 C 1076.74 1154.64 1090.68 1169.38 1104.05 1184.75 C 1088.84 1200.59 1070.43 1213.97 1056.41 1230.86 C 1069 1254.41 1075.37 1269.21 1079.71 1295.71 C 1099.95 1299.04 1121.55 1299.76 1141.32 1305.05 C 1141.09 1332.02 1134.16 1366.77 1130.33 1394.16 C 1108.88 1393.57 1087.28 1389.91 1065.94 1387.61 C 1055.98 1411.82 1045.91 1429.55 1029.92 1450.17 C 1042.95 1464.39 1058.43 1479.31 1069.26 1495.16 C 1049.4 1516.62 1027.48 1538.03 1003.52 1554.88 C 988.931 1538.21 978.43 1517.68 965.057 1499.98 C 942.838 1509.33 923.89 1513.28 901.204 1519.53 C 892.809 1531.84 896.167 1564.43 892.3 1580.12 C 892.149 1580.73 891.982 1581.34 891.822 1581.95 C 863.818 1584.11 832.993 1579.44 806.201 1571.45 C 806.817 1550.75 808.545 1529.74 810.711 1509.14 C 793.377 1500.83 776.834 1495.12 760.799 1484.05 C 742.466 1493.62 726.974 1511.5 710.013 1523.59 C 690.591 1503.79 671.944 1479.2 656.958 1455.9 C 664.213 1447.21 694.865 1419.32 697.486 1414.1 C 698.802 1411.48 699.085 1409.05 698.425 1406.22 C 696.429 1397.65 690.656 1389 687.571 1380.6 C 683.553 1369.67 681.395 1358.03 678.538 1346.75 C 659.294 1341.48 638.02 1340.61 618.25 1337.57 C 614.457 1308.69 617.876 1276.91 625.328 1248.88 C 644.614 1251.85 665.836 1254.96 685.313 1254.98 C 688.453 1247.98 690.444 1240.47 693.267 1233.33 C 699.311 1218.05 707.783 1204.64 717.805 1191.68 C 703.476 1175.27 686.782 1160.92 672.974 1144.11 C 681.656 1134.48 691.791 1125.59 701.072 1116.5 C 713.127 1104.7 724.892 1092.07 737.897 1081.36 C 751.086 1095.05 768.064 1124.19 779.42 1140.72 C 809.895 1124.64 822.592 1125.13 854.255 1118.29 C 857.807 1096 858.388 1072.68 860.52 1050.18 z"/>
<path transform="translate(0,0)" fill="rgb(5,0,10)" d="M 974.48 1224.71 C 980.283 1225.07 985.666 1230.13 989.914 1233.83 C 999.381 1242.1 1019.7 1259.89 1020.55 1272.62 C 1014.6 1285.72 874.85 1418.46 855.226 1435.6 C 851.227 1439.09 847.168 1442.31 842.425 1444.74 C 833.14 1441.07 803.542 1400.2 795.803 1390.46 C 786.603 1378.84 754.006 1341.28 750.652 1330.01 C 749.788 1327.11 750.448 1325.1 751.988 1322.57 C 754.966 1317.68 777.497 1296.84 783.279 1292.46 C 785.884 1290.48 788.174 1289.41 791.31 1288.56 C 792.229 1288.74 793.201 1288.74 794.067 1289.1 C 798.064 1290.74 840.419 1336 847.276 1342.94 C 861.218 1332.86 873.743 1319.94 886.147 1308.05 L 944.413 1251.96 C 954.044 1242.79 963.643 1232.42 974.48 1224.71 z"/>
<path transform="translate(0,0)" fill="rgb(239,214,232)" d="M 975.93 1230.88 C 991.498 1241.86 1004.83 1255.71 1015.2 1271.69 C 983.147 1305.84 948.555 1337.74 915.064 1370.47 C 900.306 1384.83 885.434 1399.07 870.448 1413.2 C 861.433 1421.74 852.624 1431.22 842.523 1438.46 C 827.427 1424.7 809.747 1398.69 796.585 1381.63 C 782.623 1363.89 767.415 1346.31 755.035 1327.47 C 767.278 1316.62 778.303 1303.92 791.553 1294.29 C 810.096 1313.03 828.403 1332 846.468 1351.2 C 864.666 1338.9 881.289 1321.44 897.001 1306.16 C 922.947 1280.94 948.761 1254.74 975.93 1230.88 z"/>
<path transform="translate(0,0)" fill="rgb(239,214,232)" d="M 1406.47 1178.4 C 1421.75 1177.15 1437.22 1178.16 1452.35 1180.51 C 1511.12 1189.63 1560.68 1220.94 1595.69 1268.85 C 1628.67 1313.97 1640.22 1369.15 1631.63 1424.07 C 1622.44 1480.35 1591.39 1530.73 1545.25 1564.25 C 1493.98 1601.61 1439.15 1612.13 1377.23 1602.46 C 1332.16 1592.96 1291.22 1569.52 1260.21 1535.46 C 1224.02 1495.06 1205.22 1437.47 1207.98 1383.61 C 1187.73 1373.95 1163.97 1369.65 1144.54 1358.63 C 1143.24 1356.33 1143.64 1355.72 1143.78 1353.16 C 1152.38 1347.29 1197.67 1344.68 1212.59 1340.42 L 1213.9 1340.04 C 1223.38 1308.38 1236.84 1279.03 1258.26 1253.51 C 1295.52 1209.11 1349.14 1183.42 1406.47 1178.4 z"/>
<path transform="translate(0,0)" fill="rgb(5,0,10)" d="M 1405.83 1204.31 C 1509.47 1196.36 1599.98 1273.82 1608.14 1377.44 C 1616.31 1481.06 1539.05 1571.73 1435.45 1580.12 C 1331.53 1588.53 1240.52 1510.99 1232.33 1407.05 C 1224.14 1303.12 1301.88 1212.27 1405.83 1204.31 z"/>
<path transform="translate(0,0)" fill="rgb(254,254,254)" d="M 1410.88 1210.4 C 1511.17 1205.26 1596.71 1282.25 1602.1 1382.53 C 1607.5 1482.81 1530.73 1568.54 1430.47 1574.2 C 1329.83 1579.88 1243.72 1502.76 1238.3 1402.12 C 1232.88 1301.47 1310.22 1215.55 1410.88 1210.4 z"/>
<path transform="translate(0,0)" fill="rgb(5,0,10)" d="M 1414.52 1269.31 C 1425.49 1268.1 1437.03 1268.94 1447.63 1272.08 C 1463.98 1276.92 1478.28 1287.43 1486.45 1302.57 C 1491.31 1311.57 1493.21 1321.35 1492.6 1331.55 C 1490.67 1363.98 1464.7 1377.83 1448.42 1402.17 C 1440.51 1414 1437.11 1426.99 1433.19 1440.47 C 1422.26 1441.05 1407.22 1441.96 1396.61 1439.66 C 1393.58 1439 1390.57 1437.66 1389.19 1434.66 C 1385.18 1425.97 1393.52 1407.07 1396.94 1398.68 C 1406.04 1380.48 1422.17 1370.41 1434.44 1355.04 C 1439.91 1348.19 1443.84 1341.05 1442.47 1332.02 C 1441.42 1325.15 1437.33 1318.88 1431.66 1314.9 C 1427.28 1311.83 1421.96 1310.11 1416.63 1311.34 C 1400.98 1314.93 1399.59 1334.85 1392.12 1346.13 C 1391.94 1346.39 1391.76 1346.65 1391.58 1346.91 C 1377.15 1344.15 1362.88 1339.67 1348.84 1335.4 C 1351.34 1321.55 1354.84 1308.22 1363.26 1296.68 C 1375.75 1279.58 1394.22 1272.38 1414.52 1269.31 z"/>
<path transform="translate(0,0)" fill="rgb(239,214,232)" d="M 1416.32 1275.31 C 1424.71 1274.41 1433.97 1275.22 1442.17 1277.14 C 1458.07 1280.87 1471.4 1289.52 1479.91 1303.66 C 1484.72 1311.63 1486.97 1320.88 1486.36 1330.17 C 1484.66 1361.02 1458.62 1376.71 1442.72 1399.98 C 1435.42 1410.66 1431.44 1421.58 1428.18 1434.04 C 1416.89 1433.99 1405.73 1433.54 1394.47 1432.79 C 1396.04 1417.78 1400.83 1404.28 1409.05 1391.71 C 1409.11 1391.64 1409.17 1391.57 1409.22 1391.49 C 1420.76 1377.1 1441.36 1363.68 1447.4 1346.11 C 1450.38 1337.43 1449.96 1327.72 1445.5 1319.61 C 1441.6 1312.52 1434.82 1307.71 1427.01 1305.79 C 1420.09 1304.1 1412.79 1304.88 1406.72 1308.73 C 1395.77 1315.66 1392.14 1327.99 1389.26 1339.82 C 1378.18 1337.23 1366.78 1334.37 1356.1 1330.43 C 1358.59 1319.57 1362.41 1309 1369.1 1299.99 C 1380.88 1284.12 1397.52 1278.11 1416.32 1275.31 z"/>
<path transform="translate(0,0)" fill="rgb(5,0,10)" d="M 1405.12 1452.37 C 1422.75 1449.16 1439.63 1460.89 1442.79 1478.53 C 1445.94 1496.17 1434.17 1513.02 1416.52 1516.12 C 1398.94 1519.21 1382.18 1507.5 1379.03 1489.93 C 1375.89 1472.36 1387.56 1455.56 1405.12 1452.37 z"/>
<path transform="translate(0,0)" fill="rgb(239,214,232)" d="M 1405.92 1458.53 C 1420.19 1455.74 1434 1465.13 1436.66 1479.42 C 1439.32 1493.72 1429.82 1507.44 1415.5 1509.98 C 1401.36 1512.49 1387.84 1503.12 1385.21 1489 C 1382.58 1474.88 1391.82 1461.28 1405.92 1458.53 z"/>
<path transform="translate(0,0)" fill="rgb(5,0,10)" d="M 561.668 597.389 C 567.171 596.752 572.463 596.422 577.608 598.868 C 593.207 606.286 597.45 639.712 602.551 655.38 C 610.965 656.291 619.358 657.387 627.724 658.668 C 627.789 658.565 627.852 658.46 627.92 658.358 C 635.734 646.703 654.736 615.873 668.346 613.79 C 680.828 611.88 697.244 622.67 707.053 629.463 C 718.786 637.588 748.344 659.872 750.382 674.827 C 752.26 688.615 730.242 715.253 722.074 726.287 C 728.372 734.73 734.529 742.885 739.767 752.056 C 754.663 750.549 788.692 742.471 801.002 750.52 C 813.823 758.902 816.993 780.918 819.388 794.802 C 822.365 812.058 830.919 845.127 819.572 859.97 C 809.52 873.118 777.525 874.719 762.42 876.943 C 760.361 885.179 758.609 893.512 756.728 901.791 C 768.329 912.118 794.693 926.419 799.215 941.109 C 801.371 948.109 796.912 957.494 793.647 963.623 C 786.164 977.672 756.646 1023.49 741.875 1026.16 C 729.526 1028.39 697.96 1004.2 687.345 996.514 C 680.493 1001.73 673.302 1006.55 666.242 1011.48 C 669.478 1022.4 673.097 1033.4 675.707 1044.48 C 677.602 1052.52 679.345 1062.09 674.508 1069.41 C 662.636 1087.38 622.884 1094.54 602.755 1098.41 C 596.242 1099.1 590.035 1099.13 583.493 1098.88 L 582.39 1098.2 C 579.731 1096.53 577.159 1094.92 575.256 1092.38 C 566.49 1080.64 560.339 1052.14 556.909 1037.35 C 549.201 1036.87 541.739 1035.41 534.163 1033.98 C 527.109 1043.04 521.091 1053.13 514.518 1062.57 C 509.543 1069.72 503.06 1079.31 493.737 1080.59 C 474.163 1083.3 446.388 1061.83 432.279 1050.44 C 423.394 1043.26 407.25 1030.97 406.341 1018.66 C 405.109 1001.99 421.558 979.556 431.664 967.47 C 425.027 959.457 418.941 950.782 412.671 942.469 C 398.167 943.526 363.419 951.612 351.474 945.474 C 346.638 942.99 344.177 936.096 342.69 931.213 C 337.424 913.914 323.495 857.349 332.542 842.522 C 340.137 830.073 374.732 824.365 388.62 821.455 L 393.129 797.619 C 382.276 790.871 349.742 766.212 347.311 754.522 C 345.626 746.419 351.688 736.046 355.802 729.295 C 364.298 715.353 391.173 675.063 406.372 672.205 C 423.159 669.049 447.869 689.417 460.851 698.546 C 467.374 690.486 475.285 685.155 483.786 679.354 C 481.883 667.748 478.995 656.198 477.481 644.547 C 476.499 636.995 476.196 629.016 481.295 622.846 C 494.506 606.859 541.201 599.844 561.668 597.389 z"/>
<path transform="translate(0,0)" fill="rgb(239,214,232)" d="M 564.471 603.395 C 568.242 602.911 571.603 602.968 575.112 604.644 C 587.58 610.599 593.395 646.399 597.897 659.761 C 608.172 662.772 619.419 663.754 629.975 665.707 C 641.13 650.184 652.758 628.752 669.568 619.056 C 682.451 620.836 694.146 627.775 704.616 635.165 C 714.12 641.874 742.876 663.28 743.902 675.58 C 744.989 688.603 722.534 715.778 714.745 726.516 C 721.992 737.042 729.991 746.671 735.997 758.022 C 755.285 758.342 774.013 752.192 793.394 753.191 C 794.118 753.593 794.845 753.991 795.551 754.423 C 805.034 760.236 808.397 770.846 810.712 781.199 C 813.903 795.465 824.34 844.576 815.258 855.956 C 806.339 867.13 771.491 869.508 757.483 871.258 L 749.104 903.959 C 762.25 913.546 778.871 923.963 788.984 936.663 C 792.183 940.68 793.916 944.133 793.097 949.317 C 790.489 965.819 754.231 1011.69 740.573 1021.14 C 721.803 1015.91 702.964 1000.47 687.292 989.072 C 678.304 995.613 669.135 1001.54 659.661 1007.35 C 662.424 1021.27 667.574 1034.67 670.14 1048.64 C 671.22 1054.53 672.417 1062.45 668.649 1067.55 C 657.489 1082.66 616.584 1090.12 598.508 1092.91 C 593.442 1093.23 587.382 1094.22 582.933 1091.21 C 573.165 1084.62 564.398 1043.25 561.388 1031.17 C 551.214 1030.08 541.42 1028.62 531.622 1025.59 C 524.868 1036.36 505.893 1070.53 494.631 1074.13 C 487.616 1076.37 477.814 1071.93 471.526 1068.83 C 457.641 1061.99 415.821 1035.28 412.394 1020 C 409.492 1007.05 431.633 977.869 439.096 966.945 C 431.213 956.785 423.193 946.916 416.252 936.064 C 401.986 937.524 368.753 944.307 356.294 940.366 C 353.413 939.455 352.032 938.117 350.682 935.472 C 344.275 922.911 331.661 859.268 337.288 847.134 C 342.815 835.215 383.242 829.18 395.06 826.331 C 395.784 815.609 398.324 805.146 400.659 794.689 C 386.48 785.074 367.702 772.97 357.222 759.512 C 354.612 756.159 353.38 752.991 354.069 748.718 C 356.317 734.778 389.247 690.042 401.064 681.367 C 420.3 667.245 446.286 703.132 460.432 704.528 C 464.342 704.914 485.024 685.992 489.948 681.955 C 487.955 668.874 484.72 655.805 483.382 642.651 C 482.83 637.222 482.548 631.22 486.318 626.842 C 498.719 612.439 546.607 605.287 564.471 603.395 z"/>
<path transform="translate(0,0)" fill="rgb(5,0,10)" d="M 569.929 697.757 C 651.67 694.329 720.72 757.798 724.177 839.537 C 727.634 921.277 664.19 990.35 582.451 993.835 C 500.672 997.323 431.558 933.84 428.099 852.06 C 424.64 770.279 488.148 701.187 569.929 697.757 z"/>
<path transform="translate(0,0)" fill="rgb(239,214,232)" d="M 563.969 703.927 C 642.258 697.175 711.196 755.169 717.942 833.459 C 724.689 911.748 666.689 980.681 588.399 987.422 C 510.118 994.162 441.193 936.17 434.447 857.889 C 427.701 779.608 485.688 710.678 563.969 703.927 z"/>
<path transform="translate(0,0)" fill="rgb(5,0,10)" d="M 563.333 750.678 C 615.318 744.08 662.824 780.834 669.492 832.81 C 676.16 884.786 639.47 932.341 587.503 939.079 C 535.437 945.83 487.772 909.055 481.091 856.98 C 474.411 804.905 511.249 757.289 563.333 750.678 z"/>
<path transform="translate(0,0)" fill="rgb(254,254,254)" d="M 563.009 756.744 C 611.872 749.991 656.907 784.266 663.416 833.162 C 669.924 882.057 635.424 926.92 586.497 933.184 C 537.914 939.404 493.436 905.2 486.973 856.649 C 480.51 808.098 514.492 763.45 563.009 756.744 z"/>
<path transform="translate(0,0)" fill="rgb(5,0,10)" d="M 308.634 1601.97 C 321.362 1601.86 334.554 1604.06 347.192 1605.57 L 408.053 1612.98 L 622.798 1639.87 C 882.45 1672.4 1141.93 1706.3 1401.22 1741.57 C 1416.54 1743.75 1588.84 1765.48 1592.68 1768.33 C 1594.03 1769.33 1593.57 1771.34 1593.66 1772.89 C 1579.21 1773.63 1538.07 1766.21 1521.11 1763.9 L 1347.15 1740.23 L 616.538 1645.35 C 582.91 1641.03 313.059 1608.73 310.036 1606.65 C 308.721 1605.74 308.881 1603.44 308.634 1601.97 z"/>
<path transform="translate(0,0)" fill="rgb(56,30,65)" d="M 1501.71 895.009 C 1508.72 895.441 1516.19 896.031 1523.08 897.343 C 1532.98 899.226 1543.94 903.685 1549.56 912.572 C 1551.69 915.951 1552.36 919.27 1551.4 923.167 C 1549.66 930.217 1542.73 935.404 1536.87 938.872 C 1542.84 943.298 1547.45 947.823 1549.13 955.376 C 1550.89 963.3 1548.2 969.827 1544.02 976.413 C 1538.93 980.844 1533.88 982.581 1527.15 983.024 C 1518.63 983.586 1497.41 984.342 1491.16 978.082 C 1487.17 974.082 1490.11 956.588 1490.69 950.856 C 1491.91 938.939 1493.47 909.318 1497.91 899.171 C 1498.66 897.466 1500.3 896.159 1501.71 895.009 z"/>
<path transform="translate(0,0)" fill="rgb(254,254,254)" d="M 1511.2 946.064 C 1515.81 946.9 1521.43 947.827 1525.55 950.104 C 1527.55 951.21 1529.61 953.066 1530.07 955.385 C 1530.88 959.511 1528.66 962.574 1526.35 965.761 C 1523.46 966.901 1519.78 967.733 1516.67 967.876 C 1514.06 967.997 1512.97 967.057 1511.17 965.365 C 1509.07 959.295 1510.63 952.376 1511.2 946.064 z"/>
<path transform="translate(0,0)" fill="rgb(254,254,254)" d="M 1515.22 912.947 C 1518.91 913.809 1523.48 914.565 1526.61 916.843 C 1528.75 918.403 1530.28 920.276 1530.48 923.028 C 1530.71 926.075 1528.9 928.715 1527.31 931.126 C 1524.61 932.01 1520.29 933.06 1517.51 932.55 C 1515.46 932.173 1515.08 931.351 1513.9 929.806 C 1512.75 924.379 1514.37 918.373 1515.22 912.947 z"/>
<path transform="translate(0,0)" fill="rgb(56,30,65)" d="M 1357.68 744.225 C 1369.22 743.396 1381.01 744.456 1391.24 750.337 C 1395.3 752.673 1400.48 756.838 1401.07 761.89 C 1401.3 763.942 1400.19 767.439 1398.72 768.91 C 1389.91 777.768 1379.26 760.815 1368.8 760.163 C 1362.48 759.712 1356.25 761.835 1351.53 766.049 C 1346.15 770.853 1343.49 777.429 1343.05 784.521 C 1342.49 793.747 1343.16 804.14 1349.76 811.252 C 1353.99 815.813 1360.44 817.747 1366.53 817.829 C 1372.5 817.91 1380.97 815.615 1385.17 811.111 C 1387.4 808.718 1388.38 806.208 1388.35 802.947 C 1383.14 795.343 1371.79 799.869 1364.85 795.214 C 1363.63 794.398 1362.65 793.327 1362.47 791.854 C 1362.05 788.347 1364.16 785.495 1366.31 782.959 C 1366.5 782.729 1366.7 782.504 1366.9 782.277 C 1380.77 780.602 1397.77 782.965 1411 787.26 C 1410.4 797.208 1409.53 810.266 1404.63 819.003 C 1400.38 826.595 1391.86 831.171 1383.69 833.26 C 1370.05 836.747 1352.26 835.101 1340.29 827.511 C 1331.07 821.665 1325.18 812.233 1322.91 801.649 C 1319.95 787.909 1322.23 770.168 1330.31 758.473 C 1336.93 748.885 1346.84 746.199 1357.68 744.225 z"/>
<path transform="translate(0,0)" fill="rgb(56,30,65)" d="M 1423.99 888.896 L 1427.53 889.247 C 1441.51 890.645 1463.79 890.611 1473.03 902.708 C 1476.65 907.451 1477.55 913.543 1476.52 919.333 C 1475.31 926.164 1470.83 929.81 1465.45 933.634 C 1470.33 938.504 1475.06 943.968 1476.32 950.979 C 1477.5 957.579 1475.19 962.437 1471.62 967.8 C 1469.51 969.739 1467.43 971.378 1464.88 972.703 C 1455.24 977.702 1433.27 975.436 1423.04 972.214 C 1420.97 971.565 1417.42 970.067 1416.6 967.91 C 1414.66 962.831 1421.48 895.113 1423.99 888.896 z"/>
<path transform="translate(0,0)" fill="rgb(254,254,254)" d="M 1437.27 939.31 C 1440.81 939.732 1444.61 940.151 1447.94 941.464 C 1451.15 942.732 1455.07 945.15 1456.06 948.695 C 1457.15 952.572 1455.43 955.764 1453.3 958.827 C 1447.01 959.107 1440.94 958.844 1434.66 958.371 C 1435.7 952.042 1436.57 945.686 1437.27 939.31 z"/>
<path transform="translate(0,0)" fill="rgb(254,254,254)" d="M 1440.33 905.638 C 1443.32 906.201 1446.55 906.666 1449.4 907.741 C 1452.21 908.8 1455.14 910.909 1456.04 913.9 C 1457.24 917.861 1455.33 921.865 1453.6 925.325 C 1451.28 925.845 1448.72 926.342 1446.35 926.497 C 1443.58 926.68 1442.5 925.998 1440.41 924.311 C 1438.41 918.866 1440 911.428 1440.33 905.638 z"/>
<path transform="translate(0,0)" fill="rgb(56,30,65)" d="M 990.358 843.123 C 996.203 842.232 1002.2 842.769 1008.09 842.982 C 1019.9 854.507 1031.48 885.407 1039.18 901.092 C 1039.15 890.13 1040.56 859.033 1045.61 850.139 C 1047.76 848.809 1049.35 848.325 1051.84 848.318 C 1055.14 848.309 1057.23 849.208 1059.53 851.61 C 1061.64 858.392 1056.13 925.602 1053.05 930.909 C 1052.2 932.366 1050.24 932.487 1048.73 932.983 C 1045.26 932.406 1041.36 932.008 1038.04 930.836 C 1030.48 928.163 1008.59 876.064 1003.31 865.853 C 1003.06 877.796 1002.05 915.87 997.591 925.105 C 994.81 926.227 991.004 926.341 988.073 925.614 C 985.43 924.958 984.265 923.572 982.7 921.482 C 980.6 910.056 986.811 854.855 990.358 843.123 z"/>
<path transform="translate(0,0)" fill="rgb(56,30,65)" d="M 1266.37 733.452 C 1273.78 734.853 1282.76 733.692 1289.2 737.927 C 1296.58 749.876 1306.47 803.222 1307.01 818.518 C 1307.08 820.641 1306.94 822.389 1305.34 823.885 C 1302.59 826.46 1299.88 826.79 1296.27 826.569 C 1288.53 823.202 1291.08 813.422 1286.64 807.74 C 1284.78 805.35 1283 805.638 1280.24 805.262 C 1272.07 804.221 1263.88 803.356 1255.68 802.667 C 1252.73 809.545 1251 816.051 1243.77 819.472 C 1240.85 820.855 1238.49 821.624 1235.34 820.481 C 1233.91 819.099 1233.26 817.878 1232.92 815.887 C 1232.27 812.048 1233.26 807.841 1234.42 804.196 C 1238.06 792.737 1260.05 742.065 1266.37 733.452 z"/>
<path transform="translate(0,0)" fill="rgb(254,254,254)" d="M 1274.98 751.481 C 1281.07 757.479 1281.53 780.268 1282.53 788.957 L 1272.18 788.55 C 1269.02 788.389 1266.37 788.332 1263.43 787.008 C 1261.81 781.435 1272.04 757.473 1274.98 751.481 z"/>
<path transform="translate(0,0)" fill="rgb(56,30,65)" d="M 1361.82 883.043 C 1367.86 882.776 1375.88 882.349 1381.01 886.09 C 1383.65 888.009 1384.87 890.93 1385.83 893.935 C 1388.44 902.101 1389.15 911.078 1391.15 919.441 C 1394.09 931.762 1398.42 943.801 1400.59 956.311 C 1401.42 961.092 1401.75 965.524 1398.82 969.616 C 1396.25 970.971 1394.23 971.506 1391.36 970.526 C 1384.95 968.333 1383.11 959.914 1380.7 954.335 C 1376.9 953.451 1372.99 953.121 1369.11 952.676 C 1363.1 951.833 1357.08 951.266 1351.04 950.718 C 1349.03 954.859 1346.08 963.045 1341.61 964.933 C 1338.84 966.108 1333.47 965.799 1330.87 964.248 C 1328.82 963.053 1327.49 960.934 1327.3 958.572 C 1326.69 951.428 1356.45 888.88 1361.82 883.043 z"/>
<path transform="translate(0,0)" fill="rgb(254,254,254)" d="M 1369.08 904.498 C 1373.93 913.12 1375.36 927.179 1377.57 936.936 L 1364.74 936.695 C 1362.23 936.52 1360.01 936.108 1357.57 935.54 C 1356.27 928.613 1366.07 911.371 1369.08 904.498 z"/>
<path transform="translate(0,0)" fill="rgb(56,30,65)" d="M 1178.76 725.186 C 1193.47 726.134 1212.4 725.902 1224.44 735.578 C 1230.32 740.298 1234.36 747.288 1234.83 754.88 C 1235.3 762.635 1232.25 770.414 1227.01 776.091 C 1219.62 784.102 1210.23 786.31 1199.75 786.622 L 1188.43 785.959 C 1187.74 793.487 1188.18 805.423 1182.96 811.124 C 1180.52 812.101 1177.22 812.261 1174.67 811.445 C 1172.23 810.663 1171.06 809.734 1170.14 807.328 C 1167.48 800.369 1175.02 732.08 1178.76 725.186 z"/>
<path transform="translate(0,0)" fill="rgb(254,254,254)" d="M 1192.02 741.817 C 1197.88 741.707 1203.52 741.868 1208.35 745.555 C 1211.52 747.98 1213.86 751.064 1214.3 755.12 C 1214.87 760.299 1212.88 765.362 1209.66 769.286 C 1202.4 772.407 1197.03 771.873 1189.38 771.167 C 1189.82 761.391 1191.09 751.563 1192.02 741.817 z"/>
<path transform="translate(0,0)" fill="rgb(56,30,65)" d="M 1180.34 863.007 C 1185.52 863.368 1192.54 863.782 1196.51 867.604 C 1203.31 874.162 1216.83 934.264 1216.65 945.235 C 1216.59 948.478 1215.64 950.167 1213.39 952.387 C 1210.96 952.808 1209.48 952.469 1207.34 951.34 C 1199.81 947.356 1198.04 942.637 1195.74 935.042 C 1192.84 934.754 1189.99 934.155 1187.13 933.628 C 1180.44 933.279 1173.98 933.542 1167.31 934.008 C 1165.89 936.207 1164.48 938.46 1162.85 940.504 C 1160.92 942.908 1158.56 944.852 1155.28 944.77 C 1151.84 944.685 1148.47 943.063 1146.06 940.712 C 1145.71 939.464 1145.28 938.754 1145.59 937.464 C 1148.21 926.696 1173.04 867.521 1180.34 863.007 z"/>
<path transform="translate(0,0)" fill="rgb(254,254,254)" d="M 1184.67 889.581 C 1184.91 889.794 1185.17 889.977 1185.38 890.22 C 1188.49 893.935 1191.6 912.901 1191.67 918.359 C 1188.87 919.603 1185.7 919.009 1182.66 918.889 C 1179.19 918.4 1175.71 917.892 1172.24 917.364 C 1175.58 907.721 1179.46 898.368 1184.67 889.581 z"/>
<path transform="translate(0,0)" fill="rgb(56,30,65)" d="M 904.972 832.831 C 910.142 832.748 916.076 832.285 920.569 835.207 C 924.558 842.796 918.128 873.35 917.497 883.165 C 917.138 888.737 916.882 897.207 921.407 901.348 C 925.351 904.958 930.361 905.271 935.454 904.696 C 957.549 902.201 942.232 851.133 954.117 839.037 C 955.663 837.464 957.717 836.975 959.864 837.068 C 963.252 837.215 965.744 838.398 968.021 840.89 C 970.003 845.22 969.127 850.345 968.894 855.004 C 967.7 869.142 967.487 884.258 964.709 898.145 C 963.267 905.349 961.086 912.695 954.534 916.796 C 945.181 922.652 931.102 922.305 920.839 919.416 C 913.792 917.433 905.871 913.454 902.363 906.656 C 895.439 893.238 900.678 847.735 904.972 832.831 z"/>
<path transform="translate(0,0)" fill="rgb(56,30,65)" d="M 1632.7 908.999 C 1644.83 908.479 1669.47 910.39 1679.18 917.526 C 1681.72 919.389 1683.02 921.161 1683.57 924.231 C 1683.07 925.235 1683.08 925.378 1682.17 926.3 C 1674.82 933.704 1655.15 930.528 1645.49 929.829 L 1644.72 946.396 C 1652.31 946.756 1659.92 946.359 1666.43 950.92 C 1668.51 952.379 1669.43 953.892 1669.89 956.39 C 1669.43 957.825 1669.02 958.818 1667.83 959.85 C 1661.07 965.749 1651 963.651 1642.96 962.829 C 1642.78 967.784 1642.33 972.742 1641.98 977.688 C 1648.55 982.325 1661.56 977.097 1669.22 981.621 C 1672.22 983.399 1673.48 985.987 1674.42 989.202 C 1673.92 991.991 1673.57 993.662 1670.99 995.35 C 1663.53 1000.23 1630.2 995.446 1621.06 993.376 C 1620.77 987.124 1621.15 981.152 1621.67 974.922 C 1622.63 963.388 1624.25 922.607 1628.42 913.93 C 1629.44 911.812 1630.94 910.483 1632.7 908.999 z"/>
<path transform="translate(0,0)" fill="rgb(56,30,65)" d="M 1435.5 753.109 C 1443.62 753.618 1473.62 755.536 1479.13 760.452 C 1481.08 762.191 1482.32 764.15 1482.26 766.855 C 1482.21 769.264 1481.37 771.789 1479.31 773.198 C 1473.48 777.188 1456.41 772.642 1449.4 771.943 C 1448.17 777.785 1447.58 783.872 1446.78 789.795 C 1453.5 790.653 1465.92 789.228 1471.34 793.085 C 1473.54 794.649 1474.74 796.315 1475.07 799.035 C 1475.4 801.807 1474.38 803.29 1472.84 805.418 C 1465.56 809.288 1453.46 805.641 1445.5 804.381 L 1444.08 815.803 C 1443.96 817.914 1443.63 820.132 1444.5 822.118 C 1447.2 828.292 1465.31 825.036 1470.78 827.583 C 1473.04 828.636 1474.45 829.941 1475.07 832.433 C 1475.68 834.909 1475.47 838.212 1474.04 840.37 C 1473.03 841.89 1470.7 842.429 1468.98 842.638 C 1461.29 843.568 1430.36 840.731 1424.77 836.172 C 1422.5 825.249 1428.13 773.775 1430.43 760.907 C 1431.2 756.572 1431.84 755.594 1435.5 753.109 z"/>
<path transform="translate(0,0)" fill="rgb(56,30,65)" d="M 1076.73 851.112 C 1080.97 851.066 1086.41 850.506 1090.2 852.618 C 1092.91 854.133 1094.18 856.799 1095.19 859.645 C 1100.95 875.853 1102.92 897.589 1107.16 914.803 C 1111.45 905.051 1124.67 867.061 1131.21 860.821 C 1133.39 858.734 1137.44 858.118 1140.31 858.153 C 1143.27 858.189 1144.75 859.071 1146.72 861.167 C 1148.07 868.424 1143.89 875.273 1140.99 881.714 C 1137.57 888.818 1117.17 934.384 1112.62 937.45 C 1107.7 938.329 1102.8 938.263 1098.17 936.195 C 1091.42 927.888 1075.63 868.282 1074.74 856.324 C 1074.53 853.458 1074.98 853.206 1076.73 851.112 z"/>
<path transform="translate(0,0)" fill="rgb(56,30,65)" d="M 1575.79 900.829 C 1578.31 901.528 1581.05 902.279 1582.82 904.338 C 1590.53 913.334 1582.33 960.15 1580.42 972.814 C 1585.82 973.109 1591.34 973.275 1596.71 973.9 C 1601.46 974.451 1605.09 975.665 1608.12 979.489 C 1609.07 982.496 1608.98 983.714 1608.27 986.659 C 1606.27 989.457 1604.39 990.02 1601.3 991.098 C 1592.3 990.501 1583.19 990.101 1574.22 989.06 C 1570.34 988.609 1564.69 988.292 1562.09 985.048 C 1560.14 973.466 1565.55 921.37 1568.92 909.335 C 1570.16 904.908 1571.79 903.028 1575.79 900.829 z"/>
<path transform="translate(0,0)" fill="rgb(56,30,65)" d="M 1279.35 874.906 C 1281.12 874.698 1282.9 874.605 1284.68 874.625 C 1287.87 874.646 1290.19 874.99 1292.42 877.544 C 1297.71 883.627 1289.96 933.524 1288.89 942.627 C 1293.95 943.238 1299.02 943.529 1304.09 944.028 C 1309.19 944.53 1313.86 944.836 1317.33 949.004 C 1318.77 953.552 1317.21 957.011 1315.24 961.101 C 1303.1 961.259 1283.61 961.392 1272.67 956.197 C 1271.81 955.118 1271.26 954.159 1270.95 952.796 C 1268.63 942.498 1274.4 883.359 1279.35 874.906 z"/>
<path transform="translate(0,0)" fill="rgb(56,30,65)" d="M 1239.5 870.103 C 1242.7 870.055 1245.85 870.193 1249.02 870.696 C 1252.3 871.215 1253.68 872.131 1255.61 874.765 C 1257.58 886.939 1252.54 933.129 1249.3 945.703 C 1248.62 948.339 1247.32 950.471 1245.75 952.665 C 1243.71 953.179 1241.14 953.898 1239.01 953.797 C 1236.49 953.676 1234.58 952.846 1233.02 950.822 C 1228.53 945.021 1237.57 880.963 1239.5 870.103 z"/>
<path transform="translate(0,0)" fill="rgb(254,254,254)" d="M 310.214 256.239 C 317.315 255.409 324.893 256.098 331.974 256.834 C 435.766 268.602 539.485 281 643.126 294.026 L 1281.85 372.468 L 1714.14 425.729 C 1751.77 430.598 1789.32 436.268 1826.98 440.886 C 1852.29 443.989 1879.22 445.409 1904.12 450.741 C 1916.24 453.336 1926.36 459.077 1934.14 468.852 C 1940.4 476.72 1945.31 487.113 1946.62 497.12 C 1949.22 517.051 1943.31 542.466 1940.73 562.658 C 1937.18 590.185 1933.8 617.734 1930.58 645.302 C 1910.6 641.748 1890.13 639.756 1870.02 636.904 C 1874.53 604.716 1878.77 572.489 1882.72 540.228 C 1883.46 532.777 1882.66 526.072 1878.46 519.652 C 1873.72 512.413 1866.55 508.989 1858.3 507.33 C 1842.99 504.253 1826.73 503.203 1811.2 501.283 L 1719.7 489.73 L 1384.55 448.384 L 901.189 387.843 C 831.161 379.196 760.973 367.622 690.723 361.297 C 683.106 360.612 675.291 361.277 668.881 365.969 C 664.32 369.308 661.367 376.48 659.779 381.69 C 656.675 391.873 656.208 403.621 654.55 414.173 C 651.082 436.241 647.162 458.251 644.444 480.429 C 598.922 473.027 552.849 468.054 507.091 462.298 L 246.634 429.692 C 247.673 406.031 251.782 381.821 254.651 358.277 C 256.969 339.252 258.109 318.864 262.402 300.238 C 264.068 293.014 266.725 285.704 270.994 279.608 C 280.142 266.547 294.865 259.037 310.214 256.239 z"/>
<path transform="translate(0,0)" fill="url(#Gradient2)" d="M 545.149 331.938 C 570.106 328.127 593.403 345.336 597.098 370.31 C 600.792 395.283 583.476 418.501 558.485 422.079 C 533.658 425.635 510.626 408.456 506.955 383.646 C 503.284 358.835 520.356 335.723 545.149 331.938 z"/>
<path transform="translate(0,0)" fill="rgb(239,214,232)" d="M 545.93 337.804 C 567.405 334.346 587.615 348.954 591.067 370.43 C 594.519 391.905 579.904 412.111 558.428 415.556 C 536.961 419 516.765 404.393 513.315 382.927 C 509.865 361.461 524.465 341.261 545.93 337.804 z"/>
<path transform="translate(0,0)" fill="rgb(5,0,10)" d="M 347.986 309.876 C 372.746 305.683 396.186 322.449 400.216 347.235 C 404.247 372.022 387.326 395.351 362.514 399.218 C 337.931 403.05 314.865 386.32 310.872 361.763 C 306.879 337.207 323.456 314.031 347.986 309.876 z"/>
<path transform="translate(0,0)" fill="rgb(239,214,232)" d="M 347.557 316.432 C 361.429 313.573 375.76 318.455 385.003 329.186 C 394.246 339.918 396.949 354.815 392.067 368.109 C 387.184 381.404 375.481 391.01 361.49 393.208 C 340.553 396.497 320.818 382.476 317.034 361.623 C 313.25 340.77 326.8 320.709 347.557 316.432 z"/>
<path transform="translate(0,0)" fill="rgb(5,0,10)" d="M 444.102 323.397 C 467.7 317.531 491.557 332.02 497.231 355.665 C 502.905 379.31 488.222 403.048 464.532 408.53 C 441.113 413.949 417.705 399.471 412.095 376.096 C 406.486 352.722 420.774 329.197 444.102 323.397 z"/>
<path transform="translate(0,0)" fill="rgb(254,254,254)" d="M 445.556 329.409 C 458.671 326.215 472.491 330.32 481.737 340.155 C 490.982 349.989 494.227 364.036 490.23 376.929 C 486.234 389.822 475.614 399.571 462.427 402.453 C 442.371 406.836 422.52 394.27 417.9 374.267 C 413.28 354.264 425.609 334.266 445.556 329.409 z"/>
<path transform="translate(0,0)" fill="rgb(254,254,254)" d="M 680.96 367.259 C 694.681 366.705 709.38 369.609 722.988 371.329 L 789.399 379.65 L 1046.57 412.33 L 1549.23 475.095 L 1761.08 501.596 C 1790.29 505.248 1819.68 508.06 1848.84 512.06 C 1858.37 513.366 1867.13 514.684 1873.07 522.995 C 1874.91 525.563 1875.82 528.251 1876.02 531.392 C 1876.86 544.559 1874.05 558.887 1872.29 571.937 C 1869.36 593.417 1866.32 614.882 1863.17 636.332 L 1848.76 634.841 L 1167.21 548.902 L 832.895 505.374 C 772.084 497.377 711.418 488.277 650.443 481.538 C 653.516 462.049 656.698 442.565 659.52 423.04 C 661.586 408.75 661.79 391.095 667.223 377.825 C 669.674 371.839 675.271 369.433 680.96 367.259 z"/>
<path transform="translate(0,0)" fill="rgb(5,0,10)" d="M 908.797 1891.63 C 923.647 1889.79 937.233 1900.19 939.336 1915.01 C 941.44 1929.82 931.285 1943.59 916.51 1945.95 C 906.716 1947.52 896.837 1943.68 890.673 1935.91 C 884.509 1928.14 883.019 1917.65 886.777 1908.47 C 890.534 1899.29 898.954 1892.85 908.797 1891.63 z"/>
<path transform="translate(0,0)" fill="rgb(254,254,254)" d="M 906.799 1898.63 C 917.963 1895.58 929.479 1902.2 932.451 1913.39 C 935.423 1924.58 928.713 1936.04 917.505 1938.93 C 906.413 1941.79 895.093 1935.17 892.152 1924.1 C 889.211 1913.03 895.751 1901.66 906.799 1898.63 z"/>
<path transform="translate(0,0)" fill="rgb(56,30,65)" d="M 1757.23 166.121 C 1759.53 165.811 1760.23 165.672 1762.49 166.454 C 1763.35 168.798 1763.69 168.557 1762.83 171.098 C 1758.31 174.352 1751.64 174.986 1746.24 176.34 C 1744.64 176.924 1742.75 176.978 1741.06 177.193 L 1739.6 175.754 C 1739.46 174.483 1740.2 173.745 1740.79 172.643 C 1745.67 168.821 1751.35 167.678 1757.23 166.121 z"/>
<path transform="translate(0,0)" fill="url(#Gradient1)" d="M 1804.49 154.217 C 1806.69 154.93 1806.49 154.537 1807.96 156.639 L 1807.38 158.461 C 1801.9 162.864 1793.99 163.754 1787.23 164.797 C 1785.18 164.677 1784.78 164.498 1783.07 163.532 L 1782.95 162.267 C 1786.51 156.915 1798.32 155.48 1804.49 154.217 z"/>
<path transform="translate(0,0)" fill="rgb(5,0,10)" d="M 1763.41 132.496 L 1765.68 133.173 C 1768.78 135.858 1770.41 141.458 1771.35 145.35 C 1772.46 149.997 1773.1 152.366 1770.56 156.566 L 1768.33 156.976 C 1765.79 155.637 1765.47 153.433 1764.63 150.743 C 1763.11 145.888 1761.04 137.164 1763.41 132.496 z"/>
<path transform="translate(0,0)" fill="rgb(5,0,10)" d="M 1773.71 175.851 C 1776.67 176.731 1777.99 176.878 1779.6 179.609 C 1782.68 184.851 1784.59 193.425 1783.32 199.435 C 1780.72 199 1779.7 199.235 1778.15 196.897 C 1774.88 191.949 1772.31 181.656 1773.71 175.851 z"/>
</svg>