<svg width="16" height="16" viewBox="0 0 16 16" fill="none" xmlns="http://www.w3.org/2000/svg">
<path d="M6.40035 4.07473C6.61494 3.53063 7.38496 3.53063 7.59956 4.07473L8.20683 5.61439C8.59989 6.61109 9.38883 7.40006 10.3856 7.79312L11.9252 8.40039C12.4693 8.61499 12.4693 9.38499 11.9252 9.59959L10.3856 10.2069C9.38883 10.5999 8.59989 11.3889 8.20683 12.3856L7.59956 13.9253C7.38496 14.4693 6.61494 14.4693 6.40035 13.9253L5.79312 12.3856C5.40003 11.3889 4.61106 10.5999 3.61436 10.2069L2.0747 9.59959C1.5306 9.38499 1.5306 8.61499 2.0747 8.40039L3.61436 7.79312C4.61106 7.40006 5.40003 6.61109 5.79312 5.61439L6.40035 4.07473Z" stroke="#B4B4B4" stroke-width="1.25"/>
<path d="M12.1085 1.81968C12.189 1.61565 12.4778 1.61565 12.5582 1.81968L12.7859 2.39705C12.9334 2.77081 13.2292 3.06668 13.603 3.21409L14.1804 3.4418C14.3844 3.52227 14.3844 3.81103 14.1804 3.89151L13.603 4.11922C13.2292 4.26663 12.9334 4.56249 12.7859 4.93625L12.5582 5.51363C12.4778 5.71766 12.189 5.71766 12.1085 5.51363L11.8808 4.93625C11.7334 4.56249 11.4375 4.26663 11.0638 4.11922L10.4864 3.89151C10.2824 3.81103 10.2824 3.52227 10.4864 3.4418L11.0638 3.21409C11.4375 3.06668 11.7334 2.77081 11.8808 2.39705L12.1085 1.81968Z" stroke="#B4B4B4" stroke-width="1.25"/>
</svg>
