<svg width="12" height="12" viewBox="0 0 12 12" fill="none" xmlns="http://www.w3.org/2000/svg">
<path d="M9.50002 6.5V7C9.50002 8.6499 9.50002 9.47485 8.98742 9.98745C8.47487 10.5 7.64992 10.5 6.00002 10.5H5.00002C3.35009 10.5 2.52512 10.5 2.01256 9.98745C1.5 9.47485 1.5 8.6499 1.5 7V6C1.5 4.35009 1.5 3.52512 2.01256 3.01256C2.52512 2.5 3.35009 2.5 5.00002 2.5H5.50002" stroke="#7B7B7B" stroke-linecap="round" stroke-linejoin="round"/>
<path d="M7 1.5H9C9.7071 1.5 10.0606 1.5 10.2803 1.71967C10.5 1.93934 10.5 2.2929 10.5 3V5M10 2L5.5 6.5" stroke="#7B7B7B" stroke-linecap="round" stroke-linejoin="round"/>
</svg>
