<svg width="16" height="16" viewBox="0 0 16 16" fill="none" xmlns="http://www.w3.org/2000/svg">
<path d="M2 4C2 4.94281 2 5.41421 2.29289 5.70711C2.58579 6 3.05719 6 4 6C4.94281 6 5.41421 6 5.70711 5.70711C6 5.41421 6 4.94281 6 4C6 3.05719 6 2.58579 5.70711 2.29289C5.41421 2 4.94281 2 4 2C3.05719 2 2.58579 2 2.29289 2.29289C2 2.58579 2 3.05719 2 4Z" stroke="#7B7B7B"/>
<path d="M10 11.6667C10 12.6095 10 13.0809 10.2929 13.3738C10.5858 13.6667 11.0572 13.6667 12 13.6667C12.9428 13.6667 13.4142 13.6667 13.7071 13.3738C14 13.0809 14 12.6095 14 11.6667C14 10.7239 14 10.2525 13.7071 9.95952C13.4142 9.66666 12.9428 9.66666 12 9.66666C11.0572 9.66666 10.5858 9.66666 10.2929 9.95952C10 10.2525 10 10.7239 10 11.6667Z" stroke="#7B7B7B"/>
<path d="M10 12H8.02684C3.09402 12 4.08052 8.14943 4.08052 6" stroke="#7B7B7B" stroke-linecap="round" stroke-linejoin="round"/>
</svg>
