<svg width="16" height="16" viewBox="0 0 16 16" fill="none" xmlns="http://www.w3.org/2000/svg">
<path d="M2 13.3333V11.9803C2 11.1521 2.37285 10.3399 3.12645 9.99641C4.04567 9.57741 5.14808 9.33334 6.33333 9.33334C7.1632 9.33334 7.95247 9.45301 8.66667 9.66854" stroke="#7B7B7B" stroke-linecap="round" stroke-linejoin="round"/>
<path d="M6.33333 7.33332C7.622 7.33332 8.66667 6.28865 8.66667 4.99999C8.66667 3.71133 7.622 2.66666 6.33333 2.66666C5.04467 2.66666 4 3.71133 4 4.99999C4 6.28865 5.04467 7.33332 6.33333 7.33332Z" stroke="#7B7B7B" stroke-linecap="round" stroke-linejoin="round"/>
<path d="M9.66669 2.76303C10.6305 3.04988 11.3334 3.94273 11.3334 4.99974C11.3334 6.05674 10.6305 6.94961 9.66669 7.23648" stroke="#7B7B7B" stroke-linecap="round" stroke-linejoin="round"/>
<path d="M12 9.33334V13.3333M10 11.3333H14" stroke="#7B7B7B" stroke-linecap="round" stroke-linejoin="round"/>
</svg>
