<svg width="16" height="16" viewBox="0 0 16 16" fill="none" xmlns="http://www.w3.org/2000/svg">
<path d="M10 1.66666V2.66666C10 3.60946 10 4.08087 10.2929 4.37376C10.5858 4.66666 11.0572 4.66666 12 4.66666H13" stroke="currentColor" stroke-width="1.25" stroke-linecap="round" stroke-linejoin="round"/>
<path d="M2.66663 10.6667V5.33334C2.66663 3.44772 2.66663 2.50492 3.25241 1.91913C3.8382 1.33334 4.78101 1.33334 6.66663 1.33334H9.44769C9.72016 1.33334 9.85643 1.33334 9.97896 1.38409C10.1014 1.43484 10.1978 1.53118 10.3905 1.72387L12.9428 4.27615C13.1354 4.46884 13.2318 4.56518 13.2826 4.6877C13.3333 4.81021 13.3333 4.94646 13.3333 5.21896V10.6667C13.3333 12.5523 13.3333 13.4951 12.7475 14.0809C12.1617 14.6667 11.2189 14.6667 9.33329 14.6667H6.66663C4.78101 14.6667 3.8382 14.6667 3.25241 14.0809C2.66663 13.4951 2.66663 12.5523 2.66663 10.6667Z" stroke="currentColor" stroke-width="1.25" stroke-linecap="round" stroke-linejoin="round"/>
<path d="M5.33337 7.33334H10.6667M5.33337 9.33334H10.6667M5.33337 11.3333H8.11391" stroke="currentColor" stroke-width="1.25" stroke-linecap="round" stroke-linejoin="round"/>
</svg>
