<svg width="16" height="16" viewBox="0 0 16 16" fill="none" xmlns="http://www.w3.org/2000/svg">
<path d="M1.33331 4L5.94199 6.61131C7.64105 7.574 8.35891 7.574 10.058 6.61131L14.6666 4" stroke="currentColor" stroke-width="1.25" stroke-linejoin="round"/>
<path d="M1.34383 8.98373C1.38741 11.0275 1.4092 12.0493 2.16329 12.8063C2.91737 13.5632 3.96687 13.5895 6.06587 13.6423C7.35951 13.6748 8.64045 13.6748 9.93411 13.6423C12.0331 13.5895 13.0826 13.5632 13.8367 12.8063C14.5908 12.0493 14.6126 11.0275 14.6561 8.98373C14.6702 8.3266 14.6702 7.6734 14.6561 7.01626C14.6126 4.97257 14.5908 3.95072 13.8367 3.19377C13.0826 2.43682 12.0331 2.41045 9.93411 2.35771C8.64045 2.3252 7.35951 2.3252 6.06586 2.3577C3.96687 2.41044 2.91737 2.4368 2.16328 3.19376C1.40919 3.95072 1.38741 4.97256 1.34382 7.01626C1.32981 7.6734 1.32981 8.3266 1.34383 8.98373Z" stroke="currentColor" stroke-width="1.25" stroke-linejoin="round"/>
</svg>
