<svg width="16" height="16" viewBox="0 0 16 16" fill="none" xmlns="http://www.w3.org/2000/svg">
<path d="M10.95 3.07006L11.61 2.41007C12.1568 1.86331 13.0432 1.86331 13.59 2.41007C14.1367 2.95683 14.1367 3.84329 13.59 4.39005L12.93 5.05004M10.95 3.07006L6.51043 7.5096C6.17209 7.848 5.93207 8.27187 5.81602 8.73607L5.33337 10.6667L7.26397 10.184C7.72817 10.068 8.15204 9.82793 8.49044 9.4896L12.93 5.05004M10.95 3.07006L12.93 5.05004" stroke="#7B7B7B" stroke-width="1.25" stroke-linejoin="round"/>
<path d="M12.6666 9C12.6666 11.1917 12.6666 12.2875 12.0613 13.0251C11.9505 13.1601 11.8267 13.2839 11.6917 13.3947C10.9541 14 9.85827 14 7.6666 14H7.33333C4.81917 14 3.56211 14 2.78106 13.2189C2.00002 12.4379 2 11.1808 2 8.66666V8.33333C2 6.14167 2 5.04585 2.60529 4.30829C2.71611 4.17326 2.83993 4.04944 2.97496 3.93862C3.71253 3.33333 4.80835 3.33333 7 3.33333" stroke="#7B7B7B" stroke-width="1.25" stroke-linecap="round" stroke-linejoin="round"/>
</svg>
