<svg width="16" height="16" viewBox="0 0 16 16" fill="none" xmlns="http://www.w3.org/2000/svg">
<g clip-path="url(#clip0_50_2095)">
<path d="M10.0001 11.3333C9.46714 11.7483 8.76694 12 8.00014 12C7.23327 12 6.53314 11.7483 6.00012 11.3333" stroke="#B4B4B4" stroke-width="1.25" stroke-linecap="round"/>
<path d="M1.5677 8.80901C1.33235 7.27748 1.21468 6.51176 1.50422 5.83293C1.79375 5.15409 2.43612 4.68963 3.72086 3.76072L4.68076 3.06668C6.27896 1.91112 7.07805 1.33334 8.00012 1.33334C8.92212 1.33334 9.72125 1.91112 11.3194 3.06668L12.2793 3.76072C13.5641 4.68963 14.2064 5.15409 14.496 5.83293C14.7855 6.51176 14.6678 7.27748 14.4325 8.80901L14.2318 10.1149C13.8982 12.2859 13.7314 13.3715 12.9528 14.0191C12.1742 14.6667 11.0358 14.6667 8.75932 14.6667H7.24091C4.96433 14.6667 3.82604 14.6667 3.04744 14.0191C2.26883 13.3715 2.10202 12.2859 1.76839 10.1149L1.5677 8.80901Z" stroke="#B4B4B4" stroke-width="1.25" stroke-linejoin="round"/>
</g>
<defs>
<clipPath id="clip0_50_2095">
<rect width="16" height="16" fill="white"/>
</clipPath>
</defs>
</svg>
