<svg width="16" height="16" viewBox="0 0 16 16" fill="none" xmlns="http://www.w3.org/2000/svg">
<path d="M5.76199 2.76373L4.62544 3.28908C2.87515 4.09813 2 4.50265 2 5.16667C2 5.83069 2.87515 6.23521 4.62545 7.04425L5.76199 7.5696C6.86347 8.07873 7.41427 8.33333 8 8.33333C8.58573 8.33333 9.13653 8.07873 10.238 7.5696L11.3745 7.04425C13.1249 6.23521 14 5.83069 14 5.16667C14 4.50265 13.1249 4.09813 11.3745 3.28908L10.238 2.76373C9.13653 2.25457 8.58573 2 8 2C7.41427 2 6.86347 2.25457 5.76199 2.76373Z" stroke="currentColor" stroke-linecap="round" stroke-linejoin="round"/>
<path d="M13.8587 7.33334C13.9529 7.46581 14 7.60394 14 7.75581C14 8.41034 13.1249 8.80914 11.3745 9.60668L10.238 10.1245C9.13653 10.6264 8.58573 10.8774 8 10.8774C7.41427 10.8774 6.86347 10.6264 5.76199 10.1245L4.62545 9.60668C2.87515 8.80914 2 8.41034 2 7.75581C2 7.60394 2.04711 7.46581 2.14133 7.33334" stroke="currentColor" stroke-linecap="round" stroke-linejoin="round"/>
<path d="M13.5845 9.87741C13.8615 10.0981 14 10.318 14 10.5784C14 11.233 13.1249 11.6317 11.3745 12.4293L10.238 12.9471C9.13653 13.4491 8.58573 13.7 8 13.7C7.41427 13.7 6.86347 13.4491 5.76199 12.9471L4.62545 12.4293C2.87515 11.6317 2 11.233 2 10.5784C2 10.318 2.13852 10.0981 2.41556 9.87741" stroke="currentColor" stroke-linecap="round" stroke-linejoin="round"/>
</svg>
