<svg width="16" height="16" viewBox="0 0 16 16" fill="#ff56fd" xmlns="http://www.w3.org/2000/svg">
<path d="M8 1.33301C11.6819 1.33301 14.667 4.3181 14.667 8C14.6669 11.6818 11.6818 14.667 8 14.667C4.31815 14.667 1.33305 11.6818 1.33301 8C1.33301 4.31811 4.31812 1.33303 8 1.33301ZM11.0039 5.63184C10.8257 5.46868 10.5613 5.45818 10.373 5.59473L10.2979 5.66211L6.9834 9.27637L5.68652 7.97949L5.6084 7.91602C5.41438 7.78786 5.15037 7.80876 4.97949 7.97949C4.80891 8.15025 4.78721 8.41443 4.91504 8.6084L4.97949 8.68652L6.64648 10.3535C6.74282 10.4498 6.87461 10.5029 7.01074 10.5C7.1469 10.497 7.27607 10.4382 7.36816 10.3379L11.0352 6.33789C11.2216 6.13434 11.2074 5.81841 11.0039 5.63184Z" fill="currentColor"/>
</svg>
