<svg width="20" height="20" viewBox="0 0 20 20" fill="none" xmlns="http://www.w3.org/2000/svg">
<g clip-path="url(#clip0_110_6589)">
<path d="M9.99996 18.3333C14.6023 18.3333 18.3333 14.6024 18.3333 10C18.3333 5.39763 14.6023 1.66667 9.99996 1.66667C5.39759 1.66667 1.66663 5.39763 1.66663 10C1.66663 14.6024 5.39759 18.3333 9.99996 18.3333Z" stroke="currentcolor" stroke-width="1.5"/>
<path d="M10 3.75C11.2362 3.75 12.4445 4.11656 13.4723 4.80332C14.5001 5.49007 15.3012 6.46619 15.7743 7.60823C16.2473 8.75025 16.3711 10.0069 16.1299 11.2193C15.8887 12.4317 15.2935 13.5453 14.4194 14.4194C13.5453 15.2935 12.4317 15.8887 11.2193 16.1299C10.0069 16.3711 8.75025 16.2473 7.60823 15.7743C6.46619 15.3012 5.49007 14.5001 4.80332 13.4723C4.11656 12.4445 3.75 11.2362 3.75 10H10V3.75Z" fill="currentcolor"/>
</g>
<defs>
<clipPath id="clip0_110_6589">
<rect width="20" height="20" fill="white"/>
</clipPath>
</defs>
</svg>
