<svg width="12" height="12" viewBox="0 0 12 12" fill="none" xmlns="http://www.w3.org/2000/svg">
<g clip-path="url(#clip0_131_29361)">
<path d="M7.5 7.5L8.25 8.25" stroke="currentolor" stroke-width="1.25" stroke-linecap="round" stroke-linejoin="round"/>
<path d="M8.46664 9.5126C8.17779 9.22375 8.17779 8.75545 8.46664 8.46665C8.75544 8.1778 9.22374 8.1778 9.51259 8.46665L10.5333 9.4874C10.8222 9.77625 10.8222 10.2446 10.5333 10.5334C10.2445 10.8222 9.77624 10.8222 9.48739 10.5334L8.46664 9.5126Z" stroke="currentcolor" stroke-width="1.25" stroke-linecap="round" stroke-linejoin="round"/>
<path d="M8.25 4.75C8.25 2.81701 6.683 1.25 4.75 1.25C2.81701 1.25 1.25 2.81701 1.25 4.75C1.25 6.683 2.81701 8.25 4.75 8.25C6.683 8.25 8.25 6.683 8.25 4.75Z" stroke="currentcolor" stroke-width="1.25" stroke-linecap="round" stroke-linejoin="round"/>
</g>
<defs>
<clipPath id="clip0_131_29361">
<rect width="12" height="12" fill="white"/>
</clipPath>
</defs>
</svg>
