<svg width="16" height="16" viewBox="0 0 16 16" fill="none" xmlns="http://www.w3.org/2000/svg">
<g clip-path="url(#clip0_50_3805)">
<path d="M14.2116 4.76092L13.8826 4.18985C13.6337 3.75796 13.5093 3.54202 13.2976 3.45591C13.0858 3.3698 12.8464 3.43775 12.3675 3.57364L11.554 3.80278C11.2483 3.87328 10.9275 3.83328 10.6484 3.68985L10.4238 3.56027C10.1844 3.40694 10.0002 3.18088 9.89829 2.91515L9.67569 2.25023C9.52929 1.81022 9.45609 1.59021 9.28183 1.46437C9.10763 1.33853 8.87616 1.33853 8.41323 1.33853H7.67003C7.20716 1.33853 6.97569 1.33853 6.80143 1.46437C6.62719 1.59021 6.554 1.81022 6.40762 2.25023L6.18498 2.91515C6.08306 3.18088 5.89893 3.40694 5.65954 3.56027L5.43495 3.68985C5.15578 3.83328 4.83502 3.87328 4.52928 3.80278L3.71579 3.57364C3.2369 3.43775 2.99746 3.3698 2.78574 3.45591C2.57402 3.54202 2.44959 3.75796 2.20073 4.18985L1.87167 4.76092C1.6384 5.16575 1.52176 5.36817 1.5444 5.58365C1.56703 5.79913 1.72318 5.97278 2.03547 6.32007L2.72283 7.08853C2.89083 7.30119 3.0101 7.67186 3.0101 8.00512C3.0101 8.33852 2.89087 8.70906 2.72285 8.92179L2.03547 9.69026C1.72318 10.0376 1.56704 10.2112 1.5444 10.4267C1.52176 10.6422 1.6384 10.8446 1.87167 11.2494L2.20072 11.8205C2.44958 12.2523 2.57402 12.4683 2.78574 12.5544C2.99746 12.6405 3.23691 12.5726 3.71581 12.4367L4.52925 12.2075C4.83505 12.137 5.15587 12.1771 5.43507 12.3205L5.65963 12.4501C5.89897 12.6035 6.08305 12.8295 6.18496 13.0952L6.40762 13.7602C6.554 14.2002 6.62719 14.4202 6.80143 14.5461C6.97569 14.6719 7.20716 14.6719 7.67003 14.6719H8.41323C8.87616 14.6719 9.10763 14.6719 9.28183 14.5461C9.45609 14.4202 9.52929 14.2002 9.67569 13.7602L9.89836 13.0952C10.0002 12.8295 10.1843 12.6035 10.4237 12.4501L10.6482 12.3205C10.9274 12.1771 11.2482 12.137 11.554 12.2075L12.3675 12.4367C12.8464 12.5726 13.0858 12.6405 13.2976 12.5544C13.5093 12.4683 13.6337 12.2523 13.8826 11.8205L14.2116 11.2494C14.4449 10.8446 14.5615 10.6422 14.5389 10.4267C14.5162 10.2112 14.3601 10.0376 14.0478 9.69026L13.3604 8.92179C13.1924 8.70906 13.0732 8.33852 13.0732 8.00512C13.0732 7.67186 13.1925 7.30119 13.3604 7.08853L14.0478 6.32007C14.3601 5.97278 14.5162 5.79913 14.5389 5.58365C14.5615 5.36817 14.4449 5.16575 14.2116 4.76092Z" stroke="#7B7B7B" stroke-width="1.25" stroke-linecap="round"/>
<path d="M10.3463 7.99999C10.3463 9.28866 9.30167 10.3333 8.013 10.3333C6.72433 10.3333 5.67969 9.28866 5.67969 7.99999C5.67969 6.71132 6.72433 5.66666 8.013 5.66666C9.30167 5.66666 10.3463 6.71132 10.3463 7.99999Z" stroke="#7B7B7B" stroke-width="1.25"/>
</g>
<defs>
<clipPath id="clip0_50_3805">
<rect width="16" height="16" fill="white"/>
</clipPath>
</defs>
</svg>
