<svg width="16" height="16" viewBox="0 0 16 16" fill="none" xmlns="http://www.w3.org/2000/svg">
<path d="M9.33331 12.6667L7.40458 7.16526C6.50897 4.61064 6.06116 3.33333 5.33331 3.33333C4.60547 3.33333 4.15766 4.61064 3.26204 7.16526L1.33331 12.6667M2.99998 7.99999H7.66665" stroke="#7B7B7B" stroke-width="1.25" stroke-linecap="round" stroke-linejoin="round"/>
<path d="M14.6461 9.2928V12.2928M14.6461 9.2928C14.6776 8.74407 14.6788 8.32607 14.6129 7.98487C14.4576 7.1806 13.6172 6.69593 12.804 6.59733C12.0257 6.50298 11.401 6.70333 10.769 7.6242M14.6461 9.2928H12.7504C12.4591 9.2928 12.1654 9.30687 11.8848 9.38487C10.1697 9.86167 10.2954 12.2669 12.0155 12.5633C12.2066 12.5963 12.4017 12.6104 12.5951 12.6017C13.0469 12.5816 13.4637 12.3633 13.8214 12.0867C14.2403 11.7627 14.6461 11.3103 14.6461 10.6261V9.2928Z" stroke="#7B7B7B" stroke-width="1.25" stroke-linecap="round" stroke-linejoin="round"/>
</svg>
