<svg width="16" height="16" viewBox="0 0 16 16" fill="none" xmlns="http://www.w3.org/2000/svg">
<path d="M10 5.33333C10 6.43789 9.1046 7.33333 8 7.33333C6.8954 7.33333 6 6.43789 6 5.33333C6 4.22876 6.8954 3.33333 8 3.33333C9.1046 3.33333 10 4.22876 10 5.33333Z" stroke="currentColor" stroke-linecap="round" stroke-linejoin="round"/>
<path d="M10.6667 2.66667C11.7712 2.66667 12.6667 3.56211 12.6667 4.66667C12.6667 5.48207 12.1787 6.18349 11.4789 6.49487" stroke="currentColor" stroke-linecap="round" stroke-linejoin="round"/>
<path d="M9.14288 9.33333H6.85715C5.27919 9.33333 4 10.6125 4 12.1905C4 12.8217 4.51167 13.3333 5.14285 13.3333H10.8571C11.4883 13.3333 12 12.8217 12 12.1905C12 10.6125 10.7208 9.33333 9.14288 9.33333Z" stroke="currentColor" stroke-linecap="round" stroke-linejoin="round"/>
<path d="M11.8095 8.66667C13.3874 8.66667 14.6666 9.94587 14.6666 11.5238C14.6666 12.155 14.155 12.6667 13.5238 12.6667" stroke="currentColor" stroke-linecap="round" stroke-linejoin="round"/>
<path d="M5.33331 2.66667C4.22875 2.66667 3.33331 3.56211 3.33331 4.66667C3.33331 5.48207 3.82127 6.18349 4.5211 6.49487" stroke="currentColor" stroke-linecap="round" stroke-linejoin="round"/>
<path d="M2.47617 12.6667C1.84499 12.6667 1.33331 12.155 1.33331 11.5238C1.33331 9.94587 2.6125 8.66667 4.19045 8.66667" stroke="currentColor" stroke-linecap="round" stroke-linejoin="round"/>
</svg>
