<svg width="16" height="16" viewBox="0 0 16 16" fill="none" xmlns="http://www.w3.org/2000/svg">
<g clip-path="url(#clip0_86_3537)">
<path d="M11.6666 3.3335C12.2189 3.3335 12.6666 3.78121 12.6666 4.3335C12.6666 4.88578 12.2189 5.3335 11.6666 5.3335C11.1143 5.3335 10.6666 4.88578 10.6666 4.3335C10.6666 3.78121 11.1143 3.3335 11.6666 3.3335Z" stroke="#7B7B7B" stroke-width="1.25" stroke-linecap="round" stroke-linejoin="round"/>
<path d="M1.84953 7.42926C1.18076 8.1762 1.16638 9.30306 1.78015 10.0958C2.99812 11.6689 4.3312 13.0019 5.90426 14.2199C6.69698 14.8337 7.82384 14.8193 8.57078 14.1505C10.5986 12.3348 12.4557 10.4373 14.248 8.35193C14.4252 8.14579 14.536 7.89313 14.5608 7.6224C14.6708 6.42532 14.8968 2.97644 13.9602 2.03982C13.0236 1.1032 9.57471 1.32917 8.37764 1.43917C8.10691 1.46405 7.85424 1.57488 7.64804 1.75207C5.56279 3.5443 3.66525 5.4014 1.84953 7.42926Z" stroke="#7B7B7B" stroke-width="1.25"/>
<path d="M4.66663 9.33347L6.66661 11.3335" stroke="#7B7B7B" stroke-width="1.25" stroke-linecap="round" stroke-linejoin="round"/>
</g>
<defs>
<clipPath id="clip0_86_3537">
<rect width="16" height="16" fill="white"/>
</clipPath>
</defs>
</svg>
